<svg width="59" height="60" viewBox="0 0 59 60" fill="none" xmlns="http://www.w3.org/2000/svg">
<rect y="0.976562" width="58.9888" height="58.9888" rx="29.4944" fill="white"/>
<g clip-path="url(#clip0_1923_7225)">
<path d="M35.3922 12.4541C35.4434 12.4534 35.4947 12.4527 35.5474 12.452C36.6962 12.4398 37.7977 12.4561 38.9161 12.7521C38.9667 12.7652 39.0173 12.7784 39.0694 12.792C40.9131 13.2872 42.5741 14.2072 43.9454 15.535C44.0499 15.6358 44.1557 15.735 44.2617 15.8343C46.1723 17.6506 47.4401 20.3965 47.5127 23.0379C47.5172 23.3051 47.5175 23.5722 47.5162 23.8395C47.516 23.8956 47.5159 23.9517 47.5157 24.0095C47.5122 24.822 47.4868 25.6023 47.2833 26.3927C47.2697 26.4491 47.2561 26.5056 47.2421 26.5638C46.7365 28.6362 45.7021 30.3883 44.2598 31.9474C43.9825 31.9086 43.8566 31.7807 43.6627 31.5851C43.6007 31.5232 43.5388 31.4612 43.475 31.3974C43.4081 31.3294 43.3412 31.2614 43.2744 31.1934C43.2054 31.1241 43.1365 31.0549 43.0675 30.9857C42.8862 30.8036 42.7056 30.6209 42.5251 30.4381C42.3407 30.2516 42.1558 30.0656 41.9708 29.8796C41.6082 29.5148 41.2463 29.1493 40.8848 28.7833C41.0003 28.5404 41.1382 28.3625 41.3155 28.1593C42.2385 27.0434 42.7745 25.6609 42.8536 24.213C42.8573 24.1626 42.861 24.1122 42.8648 24.0603C42.9346 22.3021 42.2426 20.5704 41.073 19.279C39.8744 18.0123 38.2149 17.179 36.4551 17.1114C36.3958 17.1086 36.3364 17.1058 36.2752 17.1029C34.3658 17.0558 32.6158 17.8467 31.2388 19.1329C29.9608 20.4784 29.2885 22.2776 29.336 24.1301C29.4393 26.3258 30.5548 27.906 32.065 29.3942C32.1502 29.4787 32.2354 29.5632 32.3206 29.6478C32.5265 29.8522 32.7329 30.0562 32.9395 30.2599C32.5575 30.7247 32.1334 31.1453 31.7074 31.5692C31.6292 31.6473 31.5509 31.7254 31.4727 31.8035C31.2683 32.0077 31.0637 32.2117 30.859 32.4156C30.6495 32.6243 30.4403 32.8332 30.2311 33.042C29.8216 33.4508 29.4119 33.8593 29.002 34.2677C28.7566 34.1626 28.5988 34.0222 28.4113 33.8336C28.3508 33.773 28.2903 33.7125 28.2279 33.6502C28.1309 33.552 28.1309 33.552 28.0319 33.452C27.9646 33.3843 27.8972 33.3168 27.8298 33.2492C27.6528 33.0717 27.4763 32.8938 27.2999 32.7159C27.1196 32.5342 26.939 32.3528 26.7583 32.1715C26.4043 31.8159 26.0507 31.4599 25.6973 31.1036C25.8166 30.8482 25.9602 30.6856 26.1631 30.4884C26.2206 30.4322 26.2781 30.376 26.3373 30.3181C26.3813 30.2757 26.4254 30.2333 26.4708 30.1896C26.4361 30.1291 26.4361 30.1291 26.4007 30.0673C25.4074 28.2934 24.704 26.4081 24.6426 24.3536C24.6384 24.2424 24.6384 24.2424 24.6341 24.129C24.5778 21.2737 25.5605 18.3843 27.5194 16.2844C27.6565 16.1373 27.7868 15.9862 27.9166 15.8326C28.1644 15.5506 28.4286 15.3079 28.7208 15.0724C28.7578 15.0423 28.7948 15.0122 28.833 14.9812C30.6735 13.5002 33.0023 12.4808 35.3922 12.4541Z" fill="#1447E6" fill-opacity="0.2"/>
<path d="M15.5022 31.4551C15.7099 31.5487 15.8561 31.6508 16.0168 31.8118C16.0617 31.8564 16.1066 31.901 16.1529 31.9469C16.2016 31.9961 16.2503 32.0452 16.3004 32.0958C16.3526 32.1479 16.4049 32.1999 16.4586 32.2536C16.634 32.4287 16.8088 32.6043 16.9837 32.7799C17.109 32.9054 17.2345 33.0308 17.3599 33.1561C17.6302 33.4264 17.9003 33.6968 18.1701 33.9675C18.5603 34.3588 18.9508 34.7497 19.3415 35.1405C19.9753 35.7747 20.6088 36.4091 21.2421 37.0437C21.8572 37.6602 22.4726 38.2765 23.0881 38.8926C23.145 38.9496 23.145 38.9496 23.2031 39.0077C23.3934 39.1982 23.5837 39.3887 23.7741 39.5793C25.3532 41.1598 26.9318 42.7409 28.51 44.3223C28.3841 44.5929 28.212 44.7821 28.0029 44.9916C27.9656 45.0294 27.9283 45.0673 27.8899 45.1063C27.7669 45.2311 27.6433 45.3553 27.5196 45.4794C27.4338 45.5659 27.3479 45.6523 27.2621 45.7388C27.0823 45.9197 26.9023 46.1004 26.722 46.2808C26.4907 46.5125 26.2606 46.7453 26.0307 46.9784C25.8539 47.1572 25.6764 47.3353 25.4987 47.5131C25.4134 47.5986 25.3285 47.6844 25.2438 47.7705C25.1257 47.8906 25.0065 48.0095 24.8869 48.1282C24.8345 48.1821 24.8345 48.1821 24.7811 48.2372C24.6819 48.3342 24.6819 48.3342 24.5022 48.4707C24.2683 48.4473 24.1507 48.3566 23.9874 48.1938C23.9425 48.1495 23.8975 48.1052 23.8512 48.0595C23.8025 48.0104 23.7537 47.9613 23.7035 47.9107C23.6513 47.8588 23.599 47.807 23.5452 47.7536C23.3695 47.5791 23.1946 47.4039 23.0197 47.2286C22.8942 47.1036 22.7686 46.9787 22.643 46.8538C22.3371 46.5493 22.0317 46.2442 21.7265 45.9389C21.4785 45.6909 21.2304 45.443 20.9821 45.1953C20.9107 45.124 20.8392 45.0527 20.7678 44.9813C20.7322 44.9459 20.6967 44.9104 20.66 44.8738C19.9873 44.2025 19.3154 43.5304 18.6436 42.8582C18.0285 42.2427 17.4124 41.6281 16.7959 41.0139C16.1634 40.3837 15.5314 39.7528 14.9002 39.1213C14.5456 38.7666 14.1908 38.4121 13.8353 38.0583C13.5012 37.7259 13.168 37.3925 12.8354 37.0585C12.7129 36.9357 12.5901 36.8133 12.467 36.6911C12.2996 36.525 12.1333 36.3578 11.9672 36.1903C11.9177 36.1417 11.8681 36.093 11.8171 36.0429C11.7731 35.9981 11.7291 35.9532 11.6837 35.907C11.6452 35.8685 11.6067 35.83 11.567 35.7903C11.4944 35.6738 11.4944 35.6738 11.5079 35.5301C11.5987 35.3104 11.7671 35.1628 11.9341 34.9992C11.9726 34.9608 12.011 34.9223 12.0506 34.8827C12.1775 34.7559 12.3052 34.6298 12.4329 34.5038C12.5211 34.416 12.6093 34.3281 12.6974 34.2402C12.9294 34.009 13.1621 33.7784 13.3948 33.548C13.6323 33.3127 13.8691 33.0768 14.106 32.841C14.5708 32.3784 15.0363 31.9165 15.5022 31.4551Z" fill="#1447E6" fill-opacity="0.2"/>
<path d="M21.2676 29.5565C21.7701 29.9545 22.2163 30.4222 22.6705 30.8733C22.7539 30.9559 22.8373 31.0386 22.9208 31.1212C23.1929 31.3907 23.4646 31.6607 23.7362 31.9307C23.7826 31.9767 23.8289 32.0228 23.8767 32.0703C24.3146 32.5056 24.7522 32.9411 25.1895 33.3769C25.747 33.9324 26.3053 34.4871 26.8647 35.0407C27.2591 35.4313 27.6526 35.8227 28.0454 36.2149C28.2796 36.4486 28.5141 36.6819 28.7497 36.9142C28.9713 37.1326 29.1916 37.3523 29.4111 37.5728C29.4915 37.6532 29.5724 37.7331 29.6536 37.8126C30.4219 38.565 30.7074 39.3005 30.7598 40.3846C30.7431 41.2563 30.5256 42.1465 29.9863 42.8456C29.7797 42.7523 29.6338 42.6512 29.4739 42.4911C29.4295 42.447 29.3851 42.4028 29.3394 42.3574C29.2912 42.3088 29.2431 42.2603 29.1934 42.2102C29.1418 42.1587 29.0902 42.1072 29.037 42.0541C28.8636 41.881 28.6907 41.7073 28.5178 41.5336C28.3938 41.4096 28.2698 41.2856 28.1457 41.1616C27.8784 40.8943 27.6113 40.6269 27.3445 40.3592C26.9586 39.9722 26.5724 39.5856 26.1861 39.1991C25.5593 38.572 24.9328 37.9446 24.3066 37.317C23.6982 36.7074 23.0897 36.0979 22.481 35.4886C22.4435 35.451 22.4059 35.4135 22.3673 35.3748C22.1791 35.1864 21.9908 34.9979 21.8026 34.8095C20.241 33.2465 18.6799 31.6829 17.1191 30.119C17.2502 29.8184 17.3894 29.7514 17.6904 29.618C17.7675 29.583 17.8445 29.5481 17.9239 29.512C18.8914 29.1399 20.3319 29.0387 21.2676 29.5565Z" fill="#1447E6" fill-opacity="0.2"/>
</g>
<defs>
<clipPath id="clip0_1923_7225">
<rect width="36" height="36" fill="white" transform="translate(11.4941 12.4707)"/>
</clipPath>
</defs>
</svg>
