<svg width="59" height="60" viewBox="0 0 59 60" fill="none" xmlns="http://www.w3.org/2000/svg">
<rect y="0.988281" width="58.9888" height="58.9888" rx="29.4944" fill="white"/>
<g clip-path="url(#clip0_1923_7368)">
<path d="M26.6821 33.8574C26.7673 34.1132 26.7256 34.2083 26.6513 34.4639C26.5298 34.9273 26.4616 35.3143 26.6205 35.7734C27.0487 36.4014 27.68 36.5184 28.3929 36.6639C29.8885 36.9442 32.0691 37.0515 33.4094 36.1705C33.6478 35.9862 33.7845 35.8379 33.8539 35.5449C33.8788 35.3151 33.8896 35.0859 33.8979 34.855C33.9006 34.7928 33.9033 34.7307 33.9061 34.6667C33.9127 34.5142 33.9186 34.3616 33.9242 34.209C36.2493 34.7253 38.4791 35.7922 40.3227 37.3027C40.3595 37.3324 40.3963 37.3621 40.4343 37.3927C41.4031 38.175 42.2576 39.0405 42.9946 40.0449C43.0486 40.1177 43.1026 40.1905 43.1583 40.2655C44.0219 41.4689 44.6758 42.8036 45.1083 44.2197C45.1235 44.2686 45.1388 44.3175 45.1544 44.3679C45.2318 44.6379 45.2666 44.8391 45.1742 45.1074C44.7749 45.5915 44.2295 45.9004 43.6057 45.969C43.0484 45.996 42.606 45.8344 42.1464 45.5249C41.9544 45.3501 41.7987 45.1471 41.6367 44.9448C41.0281 44.1887 40.3058 43.6014 39.3174 43.4562C38.3386 43.3809 37.467 43.5436 36.692 44.1796C36.4225 44.43 36.1774 44.7009 35.9336 44.9761C35.6808 45.2574 35.4394 45.5241 35.1152 45.7227C35.0694 45.7513 35.0236 45.7799 34.9765 45.8094C34.5724 46.0183 34.0656 46.0099 33.6279 45.9188C33.0629 45.7286 32.6492 45.3259 32.2663 44.8847C31.5991 44.1179 30.856 43.5567 29.8159 43.4279C28.7975 43.383 27.9365 43.7074 27.1792 44.3851C26.9658 44.5928 26.773 44.8141 26.581 45.0415C26.1594 45.5271 25.6732 45.8942 25.0229 45.9734C24.4148 45.9999 23.9148 45.8422 23.4433 45.4546C23.2227 45.2486 23.0376 45.0227 22.85 44.7866C22.2139 43.9918 21.3625 43.5565 20.3539 43.4199C19.3961 43.3781 18.5299 43.7781 17.8227 44.4043C17.5969 44.6312 17.3836 44.8693 17.1698 45.1074C16.7023 45.6274 16.2665 45.9421 15.5463 45.9819C14.9189 45.9567 14.3388 45.6744 13.8852 45.248C13.7013 44.9722 13.7532 44.7833 13.8149 44.4746C14.2854 42.6466 15.257 40.907 16.4867 39.4824C16.555 39.4026 16.555 39.4026 16.6246 39.3212C19.2707 36.3063 22.7486 34.5455 26.6821 33.8574ZM37.7914 37.7949C37.6324 37.9714 37.6324 37.9714 37.4926 38.1729C37.4444 38.2387 37.3962 38.3045 37.3465 38.3723C37.2307 38.5653 37.1771 38.6969 37.1586 38.9199C37.2727 39.1721 37.4024 39.3547 37.6508 39.4824C37.9201 39.4824 38.0402 39.4389 38.2485 39.2671C38.7226 38.7697 38.7226 38.7697 38.9164 38.1465C38.8317 37.9191 38.7692 37.7698 38.5693 37.6279C38.2397 37.528 38.0562 37.6017 37.7914 37.7949ZM19.4399 38.4277C19.2949 38.5834 19.2949 38.5834 19.2289 38.7793C19.3081 39.1772 19.516 39.3823 19.8002 39.6494C19.8596 39.7069 19.8596 39.7069 19.9203 39.7656C20.0173 39.8594 20.1152 39.9522 20.2133 40.0449C20.0861 40.3693 19.8262 40.574 19.5735 40.8013C19.3972 40.9685 19.3033 41.086 19.2336 41.3207C19.2268 41.6117 19.3142 41.7326 19.5102 41.9434C19.7944 42.0381 19.9332 42.0467 20.2045 41.917C20.4676 41.7183 20.6853 41.4648 20.906 41.2213C20.9558 41.1811 21.0057 41.141 21.0571 41.0996C21.4241 41.1411 21.6234 41.4546 21.8526 41.7172C22.0552 41.9344 22.137 42.0076 22.4424 42.0488C22.6839 42.0298 22.6839 42.0298 22.8808 41.8687C23.0666 41.604 23.0718 41.4887 23.0258 41.1699C22.8943 40.9879 22.7332 40.8466 22.5644 40.6997C22.4771 40.6226 22.3906 40.5448 22.3048 40.466C22.2662 40.4323 22.2275 40.3986 22.1877 40.3639C22.1117 40.2559 22.1117 40.2559 22.1251 40.1128C22.2123 39.9012 22.3638 39.7788 22.5292 39.623C22.8327 39.3452 22.8327 39.3452 23.0258 38.9902C23.0371 38.7409 23.0371 38.7409 22.9555 38.498C22.7481 38.3051 22.6245 38.2169 22.3383 38.2165C22.019 38.316 21.8526 38.5078 21.6283 38.7485C21.5867 38.7918 21.545 38.8351 21.502 38.8797C21.3997 38.9861 21.2986 39.0935 21.1977 39.2012C20.8722 39.0733 20.6656 38.813 20.4351 38.5614C20.0969 38.2071 19.8391 38.1126 19.4399 38.4277ZM24.52 39.7153C24.3995 39.878 24.3712 39.9827 24.3617 40.1855C24.4706 40.4792 24.4706 40.4792 24.693 40.6887C24.9031 40.7662 25.0829 40.7692 25.3066 40.77C25.4239 40.7718 25.4239 40.7718 25.5436 40.7736C25.7906 40.7455 25.9206 40.6829 26.1196 40.5371C26.2552 40.3584 26.2608 40.2711 26.2514 40.0449C26.1805 39.8017 26.1079 39.7064 25.9086 39.5527C25.4419 39.4037 24.919 39.416 24.52 39.7153ZM27.6313 39.8164C27.577 40.0605 27.5978 40.2264 27.6664 40.4668C27.9298 40.7521 28.1625 40.771 28.5453 40.7876C28.8214 40.7778 29.041 40.769 29.2704 40.6074C29.4184 40.4045 29.4527 40.3472 29.4682 40.1108C29.446 39.8372 29.446 39.8372 29.3012 39.6626C28.8355 39.3392 28.012 39.3722 27.6313 39.8164ZM30.9711 39.6934C30.8065 39.9403 30.7956 40.0354 30.8305 40.3262C30.9817 40.5608 31.0558 40.6591 31.3227 40.748C31.4601 40.7582 31.598 40.7636 31.7358 40.7656C31.8081 40.7674 31.8804 40.7693 31.9549 40.7711C32.1973 40.7447 32.3236 40.682 32.518 40.5371C32.6829 40.2897 32.6994 40.1955 32.6586 39.9043C32.5132 39.7225 32.3937 39.5916 32.1796 39.4956C31.7032 39.4548 31.3936 39.4652 30.9711 39.6934ZM34.1484 39.7021C34.0352 39.8808 34.0223 40.0465 34.0327 40.2553C34.0776 40.4526 34.1741 40.5729 34.3384 40.6887C34.7397 40.8492 35.1863 40.7978 35.5854 40.6602C35.7635 40.5289 35.8381 40.4694 35.893 40.2559C35.8822 39.9967 35.8541 39.8715 35.6865 39.6714C35.4569 39.4836 35.32 39.4712 35.0273 39.4692C34.9608 39.4682 34.8944 39.4672 34.826 39.4662C34.5667 39.4874 34.3682 39.5657 34.1484 39.7021Z" fill="#1447E6" fill-opacity="0.2"/>
<path d="M21.2441 44.8441C21.6703 45.1627 22.0189 45.5568 22.3575 45.9644C22.9156 46.6114 23.7123 47.0224 24.5636 47.093C25.4339 47.1136 26.1852 46.8853 26.8927 46.3731C26.9309 46.334 26.9692 46.295 27.0086 46.2547C27.1036 46.1621 27.1036 46.1621 27.2443 46.1621C27.2601 46.1244 27.276 46.0866 27.2923 46.0476C27.6213 45.455 28.1733 44.9531 28.7911 44.6856C28.8375 44.6624 28.8839 44.6392 28.9318 44.6153C29.7418 44.5542 30.3073 44.6207 30.9401 45.1514C31.1617 45.3577 31.3489 45.5751 31.5333 45.815C32.0443 46.4709 32.7436 46.9243 33.5724 47.0762C34.6155 47.1486 35.4906 46.994 36.3146 46.3028C36.583 46.0621 36.8184 45.7983 37.0529 45.5249C37.4688 45.0458 37.8719 44.6575 38.5242 44.5906C39.2271 44.5637 39.6926 44.6599 40.223 45.127C40.4976 45.3946 40.7515 45.6762 40.9991 45.9688C41.4857 46.534 42.1738 46.9807 42.9239 47.0762C43.9695 47.1503 44.8209 46.9654 45.6661 46.3028C45.9153 46.0589 46.1317 45.7924 46.3478 45.5194C46.6554 45.1447 46.991 44.9046 47.4239 44.6856C47.4471 44.6856 47.4704 44.6856 47.4943 44.6856C47.5032 45.1698 47.5093 45.654 47.5136 46.1383C47.5153 46.303 47.5177 46.4677 47.5208 46.6324C47.525 46.8692 47.527 47.106 47.5286 47.3429C47.5304 47.4165 47.5322 47.49 47.5341 47.5658C47.5341 47.6347 47.5341 47.7037 47.5342 47.7747C47.5353 47.8654 47.5353 47.8654 47.5365 47.9578C47.4728 48.2186 47.3511 48.3162 47.1427 48.4825C46.9314 48.517 46.7602 48.5298 46.5492 48.5267C46.4893 48.5272 46.4294 48.5277 46.3677 48.5283C46.166 48.5295 45.9644 48.5283 45.7628 48.5271C45.6171 48.5275 45.4715 48.5281 45.3258 48.5288C44.9249 48.5302 44.5239 48.5295 44.1229 48.5284C43.6908 48.5276 43.2587 48.5289 42.8265 48.5298C42.0287 48.5313 41.2308 48.5312 40.4329 48.5302C39.6959 48.5293 38.9588 48.5291 38.2218 48.5295C38.1485 48.5295 38.1485 48.5295 38.0737 48.5296C37.8754 48.5297 37.6771 48.5298 37.4788 48.5299C35.6177 48.531 33.7566 48.53 31.8956 48.5281C30.2415 48.5265 28.5875 48.5266 26.9335 48.5283C25.0759 48.5302 23.2182 48.5309 21.3606 48.5298C21.1627 48.5297 20.9647 48.5296 20.7667 48.5295C20.6936 48.5295 20.6936 48.5295 20.619 48.5294C19.8824 48.529 19.1457 48.5295 18.4091 48.5304C17.5716 48.5314 16.7342 48.5311 15.8967 48.5292C15.4692 48.5283 15.0416 48.5279 14.6141 48.5291C14.2231 48.5301 13.8321 48.5296 13.441 48.5277C13.2992 48.5273 13.1574 48.5275 13.0156 48.5284C12.8235 48.5294 12.6315 48.5283 12.4393 48.5267C12.3837 48.5275 12.3281 48.5283 12.2708 48.5292C11.9873 48.5243 11.8602 48.4939 11.6356 48.3147C11.479 48.111 11.4511 48.0275 11.4543 47.7747C11.4544 47.7058 11.4544 47.6368 11.4544 47.5658C11.4562 47.4922 11.4581 47.4187 11.4599 47.3429C11.4604 47.2669 11.4609 47.191 11.4614 47.1127C11.4634 46.8705 11.4678 46.6284 11.4723 46.3863C11.474 46.2219 11.4757 46.0575 11.4771 45.8931C11.481 45.4906 11.4868 45.0881 11.4943 44.6856C11.5844 44.7296 11.6745 44.7738 11.7645 44.8182C11.8147 44.8428 11.8648 44.8674 11.9165 44.8928C12.3348 45.1136 12.6565 45.4722 12.9313 45.8501C13.414 46.4934 14.2217 46.9276 15.0099 47.0762C16.0017 47.1551 16.9082 46.9479 17.6818 46.3028C17.9842 46.0058 18.2696 45.6936 18.5535 45.3791C19.2611 44.6031 20.2723 44.2742 21.2441 44.8441Z" fill="#1447E6" fill-opacity="0.2"/>
<path d="M27.6656 18.5997C27.6656 18.6461 27.6656 18.6925 27.6656 18.7404C26.18 19.3092 24.6944 19.8777 23.2067 20.4408C22.9383 20.5424 22.6701 20.6442 22.402 20.7464C22.135 20.8482 21.8678 20.9495 21.6005 21.0504C21.5005 21.0883 21.4007 21.1263 21.3009 21.1645C21.163 21.2172 21.0249 21.2693 20.8867 21.3213C20.7699 21.3656 20.7699 21.3656 20.6507 21.4108C20.3094 21.5185 20.0403 21.592 19.6983 21.4694C19.502 21.337 19.4328 21.285 19.3687 21.0607C19.3208 20.453 19.6676 19.8804 20.0435 19.4201C20.2301 19.2055 20.4288 19.0071 20.6343 18.8107C20.6841 18.763 20.7339 18.7153 20.7851 18.6662C22.5646 17.1351 25.9084 17.0058 27.6656 18.5997Z" fill="#1447E6" fill-opacity="0.2"/>
<path d="M32.5725 17.3229C34.124 17.2758 35.5776 17.8693 36.7363 18.8805C36.7796 18.917 36.8228 18.9536 36.8673 18.9912C37.2695 19.3582 37.8752 20.0871 37.9509 20.6375C37.964 20.9371 37.959 21.0886 37.791 21.3458C37.5259 21.5171 37.3218 21.5198 37.0176 21.4821C36.7785 21.4172 36.5521 21.3273 36.3227 21.2343C36.2557 21.2081 36.1888 21.1818 36.1198 21.1548C35.9001 21.0685 35.681 20.9809 35.4619 20.8932C35.3091 20.8329 35.1563 20.7726 35.0034 20.7125C34.6862 20.5875 34.3692 20.4621 34.0524 20.3363C33.5832 20.1501 33.1131 19.9663 32.6428 19.783C32.4947 19.7253 32.3466 19.6676 32.1985 19.6098C32.1272 19.5821 32.056 19.5543 31.9826 19.5257C31.6457 19.3944 31.309 19.2628 30.9724 19.131C30.9151 19.1086 30.8578 19.0863 30.7988 19.0632C30.4784 18.9377 30.1612 18.8068 29.8457 18.6696C30.4077 17.9301 31.236 17.5546 32.1309 17.3468C32.2781 17.3389 32.4253 17.331 32.5725 17.3229Z" fill="#1447E6" fill-opacity="0.2"/>
<path d="M25.768 13.326C27.117 14.3327 27.6822 15.7588 28.0883 17.3338C28.0187 17.3686 28.0187 17.3686 27.9476 17.4041C27.7781 17.3252 27.6154 17.2423 27.4511 17.1536C27.0634 16.9507 26.6865 16.7903 26.2689 16.6615C25.5129 16.4164 24.8507 15.9918 24.172 15.5861C23.8723 15.4073 23.5701 15.2331 23.2664 15.061C23.2222 15.036 23.1781 15.011 23.1327 14.9852C22.9602 14.8875 22.7877 14.7899 22.6151 14.6925C21.2764 13.9364 21.2764 13.9364 21.057 13.6073C21.0265 13.3329 21.0294 13.168 21.1581 12.9217C21.4043 12.7055 21.6568 12.631 21.9711 12.5526C22.0228 12.5396 22.0746 12.5266 22.1279 12.5133C23.4207 12.3072 24.6862 12.594 25.768 13.326Z" fill="#1447E6" fill-opacity="0.2"/>
<path d="M36.4683 12.8564C36.6165 13.0761 36.666 13.2019 36.666 13.4672C36.5192 13.9565 36.1279 14.1149 35.708 14.3461C35.6339 14.3881 35.5598 14.4301 35.4835 14.4734C35.2455 14.6079 35.0066 14.7408 34.7676 14.8735C34.5254 15.0089 34.2833 15.1445 34.0413 15.2801C33.8898 15.3647 33.7382 15.4491 33.5864 15.5331C33.1773 15.7595 33.1773 15.7595 32.7884 16.0182C32.5191 16.1805 32.2621 16.2195 31.9551 16.2709C31.2629 16.4015 30.63 16.5991 30.0382 16.996C29.8457 17.1235 29.8457 17.1235 29.7051 17.1235C29.905 15.8017 30.5215 14.6773 31.4629 13.7485C31.5056 13.7059 31.5483 13.6633 31.5923 13.6194C32.705 12.591 35.113 11.8732 36.4683 12.8564Z" fill="#1447E6" fill-opacity="0.2"/>
<path d="M32.4473 30.4121C32.5671 31.0915 32.6247 31.7633 32.6582 32.4512C31.3151 33.075 29.601 32.9054 28.1582 32.873C28.1692 32.7188 28.1802 32.5645 28.1912 32.4102C28.1973 32.3243 28.2034 32.2384 28.2097 32.1499C28.2866 31.0815 28.2866 31.0815 28.3691 30.834C28.4362 30.8271 28.5033 30.8202 28.5724 30.8131C29.1652 30.7516 29.7577 30.6878 30.35 30.6214C30.4065 30.6151 30.4631 30.6087 30.5214 30.6022C30.8093 30.57 31.0973 30.5376 31.3852 30.505C31.4931 30.4929 31.6011 30.4808 31.709 30.4687C31.7841 30.4601 31.7841 30.4601 31.8606 30.4514C32.0576 30.4294 32.2489 30.4121 32.4473 30.4121Z" fill="#1447E6" fill-opacity="0.2"/>
<path d="M31.9551 26.8969C32.0011 27.1384 32.0463 27.3802 32.0913 27.622C32.1105 27.7229 32.1105 27.7229 32.1302 27.8259C32.2159 28.2886 32.2722 28.7478 32.3066 29.2172C31.5583 29.3309 30.8101 29.4373 30.0566 29.5116C29.9997 29.5175 29.9428 29.5234 29.8841 29.5294C29.3968 29.5751 28.9354 29.5687 28.4395 29.5687C28.4395 28.7798 28.4395 27.9909 28.4395 27.1781C28.7396 27.1578 29.0398 27.1375 29.3491 27.1166C30.0279 27.0695 30.7024 27.0119 31.3769 26.9227C31.5729 26.9003 31.7583 26.8949 31.9551 26.8969Z" fill="#1447E6" fill-opacity="0.2"/>
<path d="M32.7285 33.7168C32.7285 34.2273 32.7285 34.7377 32.7285 35.2637C31.0297 35.7537 29.3551 35.8595 27.666 35.2637C27.6995 35.0908 27.7332 34.9179 27.7671 34.7451C27.7766 34.696 27.786 34.6469 27.7958 34.5963C27.869 34.2249 27.869 34.2249 27.9473 34.0684C28.0042 34.0691 28.0611 34.0698 28.1197 34.0706C29.5167 34.0862 30.8662 34.0617 32.2361 33.758C32.4473 33.7168 32.4473 33.7168 32.7285 33.7168Z" fill="#1447E6" fill-opacity="0.2"/>
<path d="M29.2129 19.6544C29.3031 19.6748 29.3933 19.6953 29.4862 19.7164C30.189 19.9461 30.189 19.9461 30.4038 20.3017C30.4804 20.5302 30.5407 20.7503 30.5883 20.9858C30.6197 21.1335 30.6588 21.2768 30.701 21.4218C30.8096 21.7978 30.9079 22.1431 30.9004 22.5372C30.6216 22.5676 30.3428 22.5977 30.064 22.6273C29.9232 22.6423 29.7825 22.6577 29.6418 22.6731C29.1677 22.7233 28.7052 22.7607 28.2285 22.7481C28.1061 21.7894 28.0229 20.8287 27.9473 19.8653C28.4078 19.6454 28.7109 19.5394 29.2129 19.6544Z" fill="#1447E6" fill-opacity="0.2"/>
<path d="M31.252 23.6621C31.6832 25.2509 31.6832 25.2509 31.6738 25.7012C30.5626 25.8687 29.4984 25.9824 28.3691 25.9824C28.3459 25.3095 28.3227 24.6366 28.2988 23.9434C28.4555 23.9289 28.6123 23.9145 28.7737 23.8997C28.9268 23.8855 29.08 23.8713 29.2331 23.8571C29.3389 23.8473 29.4446 23.8376 29.5504 23.8278C29.7031 23.8138 29.8559 23.7996 30.0086 23.7854C30.1003 23.777 30.1919 23.7685 30.2864 23.7598C30.4632 23.7413 30.6396 23.7193 30.8155 23.694C31.041 23.6621 31.041 23.6621 31.252 23.6621Z" fill="#1447E6" fill-opacity="0.2"/>
</g>
<defs>
<clipPath id="clip0_1923_7368">
<rect width="36" height="36" fill="white" transform="translate(11.4941 12.4824)"/>
</clipPath>
</defs>
</svg>
