<svg width="59" height="60" viewBox="0 0 59 60" fill="none" xmlns="http://www.w3.org/2000/svg">
<rect y="0.964844" width="58.9888" height="58.9888" rx="29.4944" fill="white"/>
<path d="M28.7016 15.1846C28.7885 15.1836 28.7885 15.1836 28.8772 15.1825C31.3201 15.1595 31.3201 15.1595 32.3065 15.4826C32.3537 15.4981 32.4009 15.5135 32.4495 15.5294C34.2724 16.1519 35.6151 17.329 36.5079 19.021C37.0167 20.0782 37.2534 21.1382 37.2547 22.3073C37.2564 22.3851 37.2582 22.463 37.2599 22.5431C37.2618 23.0644 37.1742 23.4526 36.9471 23.9201C36.8967 24.0357 36.8967 24.0357 36.8452 24.1536C36.8165 24.2187 36.7877 24.2837 36.7581 24.3508C36.5282 24.9064 36.4515 25.3837 36.6659 25.9592C36.861 26.3392 37.0858 26.6998 37.325 27.0534C37.5763 27.4304 37.5624 27.8421 37.5096 28.2795C37.3238 28.843 37.0236 29.2871 36.5252 29.6154C36.3179 29.6846 36.1411 29.6977 35.9242 29.7061C35.3598 29.7286 34.9088 29.7637 34.4378 30.1032C34.0869 30.5679 33.9328 31.1137 33.7918 31.6721C33.6658 32.1191 33.5309 32.4311 33.1502 32.7092C31.5327 33.599 29.2768 33.7639 27.4884 33.3456C25.7513 32.8205 25.7513 32.8205 25.3455 32.1467C25.2582 31.9226 25.1986 31.6939 25.139 31.4611C24.8994 30.5573 24.8994 30.5573 24.2821 29.8923C23.978 29.7931 23.7213 29.7492 23.3989 29.7393C22.7733 29.7176 22.399 29.6481 21.9574 29.1804C21.5771 28.6992 21.4276 28.2514 21.4517 27.6357C21.4918 27.3345 21.5953 27.1256 21.7596 26.8733C21.8003 26.8093 21.841 26.7453 21.8829 26.6793C21.9676 26.5467 22.0533 26.4147 22.1403 26.2836C22.438 25.793 22.511 25.3191 22.3883 24.7611C22.2741 24.4021 22.1061 24.0689 21.9395 23.7317C21.4535 22.6963 21.7106 21.1832 22.0409 20.1233C22.0655 20.0438 22.0902 19.9643 22.1156 19.8824C22.7571 18.058 24.0035 16.7027 25.7284 15.8559C26.6708 15.4276 27.6658 15.1947 28.7016 15.1846ZM24.3743 24.1838C23.9616 24.797 23.9188 25.4488 24.0096 26.1701C24.136 26.6365 24.3765 26.9343 24.7649 27.2138C25.1534 27.4128 25.5389 27.4594 25.9696 27.4533C26.019 27.4528 26.0685 27.4522 26.1194 27.4516C26.8626 27.4356 27.3873 27.2821 27.9301 26.7527C28.3007 26.3122 28.5493 25.6742 28.5184 25.0935C28.3614 24.579 28.0556 24.2499 27.5911 23.9877C27.0295 23.7091 26.4181 23.6946 25.8026 23.6872C25.7461 23.6852 25.6896 23.6831 25.6315 23.681C25.1122 23.6756 24.7465 23.8199 24.3743 24.1838ZM30.7596 24.4826C30.5449 24.7725 30.4551 25.0261 30.4784 25.3879C30.5788 26.0297 30.8218 26.5867 31.3221 27.0139C32.0539 27.4801 32.9228 27.5428 33.7688 27.4033C34.2052 27.2754 34.5427 27.0427 34.7899 26.6587C35.0873 26.0401 35.0934 25.2239 34.8685 24.5793C34.6879 24.199 34.4212 23.9645 34.0536 23.7696C33.7713 23.6844 33.505 23.6883 33.2118 23.6916C33.1522 23.6921 33.0926 23.6926 33.0312 23.6931C32.1559 23.7074 31.4 23.8422 30.7596 24.4826ZM29.2127 27.9279C28.8814 28.2354 28.7044 28.5949 28.4964 28.9914C28.4388 29.0964 28.4388 29.0964 28.3801 29.2035C28.1065 29.7228 27.9243 30.1977 28.0877 30.78C28.2186 30.9697 28.2186 30.9697 28.4525 31.0305C28.749 31.0208 28.8994 30.951 29.1534 30.8113C29.3213 30.7195 29.4418 30.6701 29.6346 30.6701C29.7752 30.7639 29.9159 30.8576 30.0565 30.9514C30.2596 31.015 30.4 31.0217 30.619 31.0217C30.8157 30.9107 30.8757 30.8194 30.9422 30.6053C31.0267 30.1427 30.8941 29.8151 30.6893 29.4045C30.6658 29.3572 30.6423 29.3099 30.6181 29.2612C30.5375 29.1003 30.4555 28.9403 30.3729 28.7805C30.3462 28.7286 30.3195 28.6767 30.292 28.6232C30.1496 28.3551 30.0186 28.1187 29.7752 27.9279C29.5947 27.9453 29.5947 27.9453 29.4237 27.9983C29.3541 27.975 29.2844 27.9518 29.2127 27.9279Z" fill="#1447E6" fill-opacity="0.2"/>
<path d="M22.393 32.0056C22.8667 32.4022 23.1266 32.8655 23.307 33.4426C23.7056 34.6235 24.3992 35.0244 25.4779 35.6135C25.5212 35.6372 25.5644 35.6609 25.6089 35.6854C27.5154 36.7299 29.4747 37.6679 31.4633 38.5447C31.5293 38.5738 31.5293 38.5738 31.5966 38.6036C34.4675 40.0609 34.4675 40.0609 37.5321 40.1662C38.9191 39.776 38.9191 39.776 39.5844 40.0652C39.9562 40.2872 40.187 40.5939 40.3227 41.0056C40.3816 41.5405 40.3819 42.0445 40.0414 42.4822C39.753 42.7885 39.4214 42.9816 39.057 43.1853C39.0595 43.2752 39.0619 43.3651 39.0645 43.4577C39.0664 43.5779 39.0684 43.698 39.0702 43.8181C39.0729 43.9066 39.0729 43.9066 39.0756 43.9969C39.0811 44.4686 39.0224 44.868 38.7173 45.2414C38.3178 45.5707 37.9919 45.758 37.4544 45.7374C37.0642 45.6849 36.7311 45.5763 36.4544 45.2872C36.1185 44.828 35.8763 44.3114 35.6881 43.7758C35.2572 42.5656 34.11 42.1037 33.0259 41.587C32.508 41.3416 31.9878 41.1014 31.4674 40.8615C31.2536 40.7628 31.0401 40.6632 30.8266 40.5637C30.1223 40.2354 29.4168 39.9095 28.7109 39.5845C28.5384 39.5051 28.3659 39.4256 28.1933 39.3461C28.0768 39.2924 27.9602 39.2388 27.8436 39.1851C27.1927 38.8855 26.543 38.5836 25.896 38.2758C25.8094 38.2346 25.8094 38.2346 25.721 38.1926C25.446 38.0619 25.1712 37.9308 24.8968 37.7989C23.8852 37.3152 22.7861 36.8597 21.6555 37.2326C21.548 37.2708 21.4408 37.3097 21.3339 37.3493C20.7465 37.565 20.1626 37.7261 19.5478 37.4952C19.1235 37.2526 18.8235 36.899 18.6664 36.4353C18.5983 35.9618 18.6477 35.5762 18.904 35.1697C19.1498 34.8664 19.4607 34.6659 19.8084 34.4954C20.011 34.3523 20.011 34.3523 20.0326 34.1873C20.0364 34.015 20.0286 33.8473 20.0155 33.6755C19.9816 33.1423 19.9909 32.6997 20.3421 32.2698C20.9635 31.7575 21.659 31.6039 22.393 32.0056Z" fill="#1447E6" fill-opacity="0.2"/>
<path d="M38.3535 32.0062C38.6739 32.2919 38.8877 32.5677 38.9863 32.9906C38.9869 33.1551 38.9773 33.3173 38.9665 33.4814C38.9165 34.0203 38.9165 34.0203 39.1143 34.4977C39.279 34.6023 39.4375 34.678 39.6191 34.7484C39.9725 34.9813 40.1756 35.2681 40.3223 35.6625C40.394 36.0979 40.3577 36.4883 40.1349 36.8729C39.8454 37.2598 39.4908 37.5167 39.0075 37.5895C38.5096 37.6051 38.1203 37.5203 37.6592 37.35C36.7156 37.0055 35.8183 37.058 34.8857 37.4475C34.5649 37.5969 34.2477 37.7531 33.9306 37.9103C33.853 37.9476 33.7755 37.985 33.6956 38.0234C33.6262 38.0578 33.5568 38.0922 33.4854 38.1276C33.0968 38.2598 32.7824 38.0647 32.4283 37.9012C32.3804 37.8795 32.3325 37.8577 32.2832 37.8353C32.1312 37.7662 31.9794 37.6965 31.8276 37.6268C31.7242 37.5797 31.6208 37.5326 31.5174 37.4855C31.2647 37.3704 31.0122 37.2549 30.7598 37.139C30.7598 37.0926 30.7598 37.0462 30.7598 36.9984C30.8238 36.9677 30.8878 36.9369 30.9538 36.9052C31.6638 36.5638 32.3726 36.22 33.0801 35.8734C33.1853 35.8219 33.1853 35.8219 33.2926 35.7694C34.5751 35.1352 35.3069 34.5772 35.7915 33.1796C35.9923 32.6025 36.2061 32.2506 36.7388 31.9321C37.2388 31.6915 37.8799 31.7165 38.3535 32.0062Z" fill="#1447E6" fill-opacity="0.2"/>
<path d="M26.5958 39.6581C26.66 39.6877 26.66 39.6877 26.7256 39.7178C26.8152 39.7592 26.9046 39.8009 26.9939 39.843C27.1309 39.9073 27.2685 39.9701 27.4063 40.0328C27.4936 40.0733 27.5808 40.114 27.668 40.1547C27.747 40.1915 27.826 40.2282 27.9073 40.2661C28.0882 40.3728 28.0882 40.3728 28.1586 40.5837C28.1048 40.6085 28.0511 40.6332 27.9957 40.6587C26.5196 41.3375 26.5196 41.3375 25.0648 42.0603C24.9932 42.0959 24.9216 42.1315 24.8478 42.1682C24.0093 42.599 23.5716 43.0845 23.2251 43.953C22.7043 45.2517 22.7043 45.2517 22.204 45.5496C21.7254 45.7482 21.2931 45.8004 20.8021 45.6067C20.4125 45.4163 20.1668 45.1508 19.9886 44.7577C19.9266 44.4987 19.9382 44.2969 19.959 44.0341C19.9794 43.7474 19.9952 43.4674 19.932 43.1853C19.755 42.9857 19.5992 42.9036 19.3585 42.7923C19.0598 42.6442 18.8992 42.4159 18.7367 42.1306C18.588 41.6846 18.5817 41.1208 18.7806 40.6892C19.0036 40.3157 19.3094 40.0908 19.7211 39.9509C20.3957 39.8423 21.0158 40.0316 21.6556 40.2289C22.3222 40.4243 22.8852 40.3721 23.5443 40.1575C23.5902 40.1428 23.6361 40.1281 23.6834 40.1129C23.971 40.0185 24.2526 39.9121 24.5339 39.8001C24.5993 39.7743 24.6648 39.7484 24.7322 39.7217C24.8607 39.6704 24.9886 39.6181 25.1161 39.5645C25.1754 39.5406 25.2347 39.5168 25.2958 39.4922C25.3479 39.4705 25.4 39.4489 25.4537 39.4265C25.8663 39.336 26.2249 39.4874 26.5958 39.6581Z" fill="#1447E6" fill-opacity="0.2"/>
</svg>
