<svg width="59" height="60" viewBox="0 0 59 60" fill="none" xmlns="http://www.w3.org/2000/svg">
<rect y="0.953125" width="58.9888" height="58.9888" rx="29.4944" fill="white"/>
<g clip-path="url(#clip0_1923_7236)">
<path d="M30.2981 12.5525C30.7077 12.8 31.0396 13.1846 31.1814 13.6424C31.2414 14.2256 31.2265 14.6951 30.9002 15.1892C30.8628 15.2233 30.8255 15.2574 30.787 15.2924C30.6116 15.4857 30.6552 15.7563 30.6533 16.0053C30.652 16.0643 30.6507 16.1233 30.6494 16.1841C30.6456 16.3725 30.6433 16.5609 30.6409 16.7493C30.6386 16.8771 30.6361 17.0048 30.6336 17.1326C30.6276 17.4457 30.623 17.7589 30.6189 18.0721C30.697 18.0804 30.7751 18.0887 30.8555 18.0973C31.4192 18.1591 31.9724 18.2252 32.5218 18.3709C32.5804 18.3861 32.639 18.4013 32.6994 18.4169C34.4402 18.8827 35.952 19.7165 37.3689 20.8142C37.7895 20.4616 38.191 20.092 38.5862 19.7112C38.6499 19.6525 38.7136 19.5938 38.7792 19.5334C39.1549 19.1683 39.3429 18.9078 39.3896 18.3791C39.4351 17.9678 39.7563 17.704 40.0606 17.4571C40.4098 17.2024 40.8324 17.1299 41.2575 17.1753C41.8472 17.2875 42.2238 17.5947 42.5721 18.0721C42.8121 18.5178 42.8178 18.9924 42.6929 19.4714C42.5268 19.9563 42.1414 20.316 41.6975 20.555C41.5174 20.6033 41.5174 20.6033 41.2533 20.6161C40.9023 20.6592 40.7349 20.8295 40.5 21.0804C40.4404 21.1411 40.4404 21.1411 40.3795 21.203C40.2537 21.3316 40.1297 21.4618 40.0057 21.5921C39.9203 21.6799 39.8347 21.7677 39.7491 21.8553C39.5403 22.0695 39.3331 22.2852 39.1267 22.5017C39.3139 22.7838 39.5059 23.0611 39.7024 23.3367C40.8786 25.0254 41.8689 27.2277 41.8689 29.3221C42.2418 29.3207 42.6145 29.317 42.9873 29.3113C43.114 29.3097 43.2407 29.3087 43.3674 29.3083C43.5501 29.3077 43.7325 29.3048 43.9151 29.3015C43.9714 29.3017 44.0277 29.302 44.0856 29.3023C44.4982 29.2916 44.6683 29.1877 44.9627 28.9002C45.4074 28.6661 45.9909 28.6819 46.4706 28.803C46.8953 28.9912 47.2286 29.3555 47.4357 29.767C47.5768 30.2222 47.5837 30.8108 47.3885 31.2513C47.141 31.6608 46.7564 31.9927 46.2986 32.1346C45.7154 32.1945 45.2459 32.1797 44.7517 31.8533C44.7007 31.7973 44.7007 31.7973 44.6485 31.7401C44.4553 31.5648 44.1847 31.6083 43.9357 31.6064C43.8767 31.6051 43.8177 31.6039 43.7569 31.6026C43.5685 31.5988 43.3801 31.5964 43.1917 31.594C43.0639 31.5917 42.9362 31.5893 42.8084 31.5868C42.4953 31.5808 42.1821 31.5761 41.8689 31.5721C41.8565 31.6892 41.8565 31.6892 41.8437 31.8087C41.7818 32.3724 41.7158 32.9256 41.5701 33.4749C41.5549 33.5335 41.5397 33.592 41.524 33.6524C41.2618 34.6316 40.8686 35.5309 40.3924 36.4236C40.3697 36.4666 40.3471 36.5096 40.3237 36.5538C39.9834 37.1941 39.5825 37.7599 39.1267 38.3221C39.4794 38.7426 39.849 39.1442 40.2298 39.5393C40.2885 39.603 40.3471 39.6667 40.4076 39.7323C40.7727 40.108 41.0332 40.296 41.5619 40.3427C41.9732 40.3882 42.237 40.7094 42.4839 41.0137C42.7386 41.3629 42.8111 41.7855 42.7657 42.2107C42.6536 42.7999 42.3466 43.1775 41.8689 43.5252C41.364 43.7903 40.8529 43.7575 40.3221 43.5955C39.9136 43.3834 39.6037 43.0549 39.386 42.6507C39.3377 42.4705 39.3377 42.4705 39.3249 42.2064C39.2818 41.8554 39.1115 41.688 38.8606 41.4532C38.7999 41.3935 38.7999 41.3935 38.7379 41.3326C38.6094 41.2068 38.4792 41.0828 38.3489 40.9588C38.261 40.8734 38.1733 40.7879 38.0857 40.7022C37.8714 40.4934 37.6558 40.2863 37.4392 40.0799C37.1915 40.2445 36.9465 40.4111 36.7054 40.5852C34.979 41.7883 32.7684 42.8221 30.6189 42.8221C30.6203 43.1949 30.6239 43.5676 30.6297 43.9404C30.6313 44.0671 30.6323 44.1938 30.6327 44.3206C30.6333 44.5032 30.6362 44.6857 30.6395 44.8683C30.6391 44.9527 30.6391 44.9527 30.6387 45.0388C30.6494 45.4514 30.7533 45.6214 31.0408 45.9158C31.2749 46.3605 31.2591 46.9441 31.138 47.4237C30.9498 47.8484 30.5855 48.1817 30.174 48.3888C29.7188 48.5299 29.1302 48.5368 28.6897 48.3416C28.2802 48.0941 27.9483 47.7095 27.8064 47.2517C27.7465 46.6685 27.7613 46.1991 28.0877 45.7049C28.125 45.6708 28.1624 45.6368 28.2009 45.6017C28.3762 45.4084 28.3327 45.1379 28.3346 44.8889C28.3359 44.8299 28.3371 44.7708 28.3384 44.7101C28.3422 44.5216 28.3446 44.3332 28.347 44.1448C28.3493 44.017 28.3517 43.8893 28.3542 43.7615C28.3602 43.4484 28.3649 43.1352 28.3689 42.8221C28.2768 42.8125 28.1848 42.803 28.0899 42.7932C25.6888 42.5203 23.49 41.6093 21.6189 40.0799C21.1984 40.4325 20.7968 40.8021 20.4016 41.1829C20.338 41.2416 20.2743 41.3003 20.2087 41.3607C19.8329 41.7259 19.645 41.9863 19.5983 42.515C19.5528 42.9263 19.2316 43.1901 18.9273 43.437C18.5781 43.6918 18.1555 43.7642 17.7303 43.7188C17.1407 43.6067 16.7641 43.2994 16.4158 42.8221C16.1758 42.3763 16.1701 41.9017 16.295 41.4227C16.4611 40.9378 16.8465 40.5781 17.2903 40.3391C17.4705 40.2908 17.4705 40.2908 17.7346 40.2781C18.0856 40.2349 18.253 40.0647 18.4878 39.8137C18.5276 39.7732 18.5674 39.7328 18.6084 39.6911C18.7342 39.5625 18.8582 39.4323 18.9822 39.302C19.0676 39.2142 19.1531 39.1264 19.2387 39.0388C19.4475 38.8246 19.6547 38.6089 19.8611 38.3924C19.6739 38.1103 19.4819 37.833 19.2854 37.5574C18.1093 35.8687 17.1189 33.6664 17.1189 31.5721C16.7461 31.5734 16.3734 31.5771 16.0006 31.5828C15.8739 31.5844 15.7471 31.5854 15.6204 31.5858C15.4378 31.5865 15.2553 31.5893 15.0727 31.5927C15.0165 31.5924 14.9602 31.5921 14.9022 31.5918C14.4896 31.6025 14.3195 31.7064 14.0252 31.9939C13.5805 32.228 12.9969 32.2122 12.5173 32.0912C12.0926 31.903 11.7593 31.5386 11.5522 31.1271C11.4111 30.6719 11.4042 30.0833 11.5994 29.6429C11.8469 29.2333 12.2315 28.9014 12.6892 28.7596C13.2725 28.6996 13.7419 28.7145 14.2361 29.0408C14.2702 29.0782 14.3042 29.1155 14.3393 29.154C14.5326 29.3293 14.8031 29.2858 15.0521 29.2877C15.1111 29.289 15.1701 29.2903 15.2309 29.2916C15.4193 29.2954 15.6077 29.2977 15.7962 29.3001C15.9239 29.3024 16.0517 29.3048 16.1795 29.3074C16.4926 29.3133 16.8058 29.318 17.1189 29.3221C17.1272 29.244 17.1356 29.1659 17.1441 29.0855C17.206 28.5218 17.2721 27.9686 17.4178 27.4192C17.4406 27.3313 17.4406 27.3313 17.4638 27.2416C17.9296 25.5007 18.7634 23.989 19.8611 22.5721C19.5085 22.1515 19.1389 21.7499 18.7581 21.3548C18.6701 21.2593 18.6701 21.2593 18.5803 21.1618C18.2151 20.7861 17.9546 20.5981 17.426 20.5514C17.0147 20.5059 16.7509 20.1847 16.504 19.8804C16.2492 19.5312 16.1768 19.1086 16.2222 18.6834C16.3343 18.0938 16.6415 17.7172 17.1189 17.3689C17.5646 17.1289 18.0393 17.1232 18.5183 17.2481C19.0032 17.4142 19.3629 17.7996 19.6018 18.2434C19.6502 18.4236 19.6502 18.4236 19.6629 18.6877C19.7061 19.0387 19.8763 19.2061 20.1273 19.441C20.1677 19.4807 20.2082 19.5205 20.2499 19.5615C20.3785 19.6873 20.5087 19.8113 20.639 19.9353C20.7268 20.0207 20.8146 20.1062 20.9022 20.1919C21.1164 20.4007 21.3321 20.6079 21.5486 20.8142C21.8307 20.627 22.108 20.4351 22.3836 20.2386C24.0723 19.0624 26.2746 18.0721 28.3689 18.0721C28.3676 17.6992 28.3639 17.3265 28.3582 16.9537C28.3566 16.827 28.3556 16.7003 28.3552 16.5736C28.3545 16.3909 28.3516 16.2085 28.3483 16.0259C28.3487 15.9415 28.3487 15.9415 28.3492 15.8554C28.3385 15.4428 28.2346 15.2727 27.9471 14.9783C27.713 14.5336 27.7288 13.9501 27.8498 13.4704C28.038 13.0457 28.4024 12.7124 28.8139 12.5053C29.2691 12.3642 29.8576 12.3573 30.2981 12.5525ZM24.5721 23.6267C24.5429 23.9063 24.5429 23.9063 24.7029 24.0726C24.7641 24.1332 24.8253 24.1938 24.8883 24.2562C24.9219 24.2898 24.9555 24.3235 24.9902 24.3581C25.1014 24.4692 25.2135 24.5791 25.3257 24.6891C25.403 24.7659 25.4803 24.8427 25.5575 24.9197C25.7607 25.1219 25.9649 25.3232 26.1692 25.5244C26.3775 25.7299 26.5851 25.9361 26.7927 26.1423C27.2001 26.5468 27.6085 26.9503 28.0174 27.3533C28.1914 27.2837 28.1914 27.2837 28.3689 27.2127C28.3689 25.5421 28.3689 23.8714 28.3689 22.1502C27.1431 22.1502 25.4747 22.7843 24.5721 23.6267ZM30.6189 22.1502C30.6189 23.8208 30.6189 25.4914 30.6189 27.2127C30.7349 27.2591 30.851 27.3055 30.9705 27.3533C32.1307 26.1932 33.2908 25.033 34.4861 23.8377C34.3299 23.5253 34.1733 23.4215 33.8841 23.2532C33.8374 23.2258 33.7908 23.1984 33.7427 23.1702C32.8184 22.6423 31.697 22.1502 30.6189 22.1502ZM22.7439 25.4549C21.8953 26.4091 21.1971 28.0494 21.1971 29.3221C22.8677 29.3221 24.5383 29.3221 26.2596 29.3221C26.306 29.206 26.3524 29.09 26.4002 28.9705C25.9446 28.5117 25.4887 28.0533 25.0323 27.5954C24.8204 27.3827 24.6087 27.17 24.3972 26.9569C24.1933 26.7514 23.989 26.5463 23.7845 26.3414C23.7064 26.2631 23.6284 26.1846 23.5505 26.106C23.4417 25.9962 23.3326 25.8868 23.2232 25.7776C23.13 25.6839 23.13 25.6839 23.0349 25.5883C22.9005 25.4393 22.9005 25.4393 22.7439 25.4549ZM36.1033 25.4549C34.9432 26.615 33.783 27.7752 32.5877 28.9705C32.6341 29.0865 32.6805 29.2025 32.7283 29.3221C34.3989 29.3221 36.0696 29.3221 37.7908 29.3221C37.6596 28.0104 37.1731 26.5577 36.3142 25.5252C36.2446 25.502 36.175 25.4788 36.1033 25.4549ZM28.5535 29.8582C28.3985 30.1801 28.3832 30.4474 28.4392 30.7986C28.6031 31.1388 28.8022 31.3379 29.1424 31.5017C29.4935 31.5578 29.7609 31.5425 30.0828 31.3875C30.3348 31.1595 30.5202 30.9769 30.5755 30.63C30.5935 30.2303 30.5441 29.9795 30.2674 29.6736C29.9615 29.3969 29.7107 29.3475 29.311 29.3655C28.9641 29.4208 28.7815 29.6062 28.5535 29.8582ZM21.1971 31.5721C21.2426 32.0271 21.2838 32.4178 21.4124 32.8465C21.4275 32.8971 21.4426 32.9477 21.4582 32.9999C21.6356 33.5639 21.893 34.0809 22.1814 34.5955C22.2262 34.6754 22.271 34.7554 22.3171 34.8377C22.4786 35.1156 22.4786 35.1156 22.6736 35.3689C22.9532 35.3981 22.9532 35.3981 23.1195 35.2381C23.1801 35.1769 23.2407 35.1157 23.3031 35.0527C23.3535 35.0023 23.3535 35.0023 23.405 34.9508C23.516 34.8396 23.626 34.7275 23.736 34.6153C23.8128 34.538 23.8896 34.4607 23.9665 34.3835C24.1687 34.1802 24.3701 33.9761 24.5713 33.7718C24.7768 33.5635 24.983 33.3559 25.1892 33.1483C25.5937 32.7409 25.9972 32.3325 26.4002 31.9236C26.3306 31.7496 26.3306 31.7496 26.2596 31.5721C24.5889 31.5721 22.9183 31.5721 21.1971 31.5721ZM32.7283 31.5721C32.6819 31.6881 32.6355 31.8041 32.5877 31.9236C33.7478 33.0838 34.908 34.2439 36.1033 35.4392C36.4118 35.285 36.5162 35.1354 36.6834 34.8504C36.7105 34.8044 36.7377 34.7585 36.7657 34.7112C37.296 33.7814 37.7908 32.6563 37.7908 31.5721C36.1202 31.5721 34.4496 31.5721 32.7283 31.5721ZM28.0174 33.5408C26.8572 34.701 25.6971 35.8611 24.5017 37.0564C24.6401 37.3417 24.6401 37.3417 24.8731 37.5017C24.9201 37.53 24.967 37.5583 25.0154 37.5875C25.0918 37.6313 25.0918 37.6313 25.1697 37.6761C25.2226 37.7067 25.2755 37.7373 25.33 37.7689C26.2374 38.2794 27.3141 38.7439 28.3689 38.7439C28.3689 37.0733 28.3689 35.4027 28.3689 33.6814C28.1949 33.6118 28.1949 33.6118 28.0174 33.5408ZM30.6189 33.6814C30.5879 33.9004 30.5879 33.9004 30.595 34.1621C30.595 34.2115 30.5949 34.2609 30.5949 34.3118C30.595 34.4754 30.5967 34.639 30.5983 34.8026C30.5987 34.9159 30.599 35.0292 30.5992 35.1425C30.6 35.441 30.6021 35.7394 30.6044 36.0379C30.6066 36.3423 30.6076 36.6468 30.6086 36.9512C30.6109 37.5488 30.6145 38.1464 30.6189 38.7439C30.7301 38.7338 30.8412 38.7233 30.9523 38.7128C31.0452 38.7041 31.0452 38.7041 31.1399 38.6953C31.3994 38.6644 31.6434 38.6035 31.8933 38.5286C31.944 38.5135 31.9946 38.4984 32.0468 38.4828C32.6108 38.3054 33.1277 38.048 33.6424 37.7596C33.7223 37.7148 33.8023 37.67 33.8846 37.6239C34.1625 37.4624 34.1625 37.4624 34.4158 37.2674C34.4448 36.988 34.4448 36.988 34.286 36.8215C34.2252 36.7609 34.1644 36.7003 34.1018 36.6379C34.0684 36.6043 34.035 36.5706 34.0006 36.536C33.8901 36.4249 33.7786 36.315 33.6671 36.205C33.5901 36.1282 33.5132 36.0514 33.4364 35.9745C33.2752 35.8135 33.1135 35.653 32.9515 35.4929C32.7435 35.2873 32.5365 35.0807 32.3297 34.8739C32.171 34.7152 32.0119 34.5569 31.8527 34.3987C31.7762 34.3226 31.6998 34.2465 31.6234 34.1703C31.5169 34.064 31.4099 33.9583 31.3027 33.8526C31.2418 33.7923 31.1809 33.7319 31.1182 33.6697C30.8953 33.4752 30.8669 33.5161 30.6189 33.6814Z" fill="#1447E6" fill-opacity="0.2"/>
</g>
<defs>
<clipPath id="clip0_1923_7236">
<rect width="36" height="36" fill="white" transform="translate(11.4941 12.4473)"/>
</clipPath>
</defs>
</svg>
