<svg width="59" height="60" viewBox="0 0 59 60" fill="none" xmlns="http://www.w3.org/2000/svg">
<rect y="0.964844" width="58.9888" height="58.9888" rx="29.4944" fill="white"/>
<g clip-path="url(#clip0_1923_7386)">
<path d="M16.7676 25.0449C19.4823 25.0449 22.1971 25.0449 24.9941 25.0449C25.0205 27.2246 25.0205 27.2246 25.0278 27.9055C25.0302 28.0872 25.0328 28.269 25.0353 28.4507C25.0361 28.5421 25.0369 28.6335 25.0378 28.7277C25.0608 30.2184 25.2839 31.5668 26.3477 32.6914C27.2014 33.499 28.3038 33.9502 29.4766 33.9966C30.7131 33.9595 31.8204 33.5028 32.6895 32.6236C33.8008 31.412 33.9267 30.0571 33.9461 28.485C33.948 28.3535 33.948 28.3535 33.9501 28.2193C33.9548 27.8951 33.9591 27.5708 33.9634 27.2466C33.9735 26.52 33.9837 25.7935 33.9941 25.0449C36.7089 25.0449 39.4237 25.0449 42.2207 25.0449C42.3367 25.4394 42.4527 25.8338 42.5723 26.2402C43.1513 27.7887 44.1644 28.924 45.6309 29.6943C45.6712 29.7163 45.7115 29.7383 45.753 29.761C46.3125 30.0427 46.8711 30.1453 47.4941 30.3184C47.4941 33.3812 47.4941 36.444 47.4941 39.5996C47.0069 39.7388 46.5196 39.878 46.0176 40.0215C45.3255 40.3462 44.7527 40.7026 44.1895 41.2168C44.1382 41.2631 44.087 41.3094 44.0343 41.3571C43.0362 42.3056 42.5482 43.5632 42.2207 44.873C33.8212 44.873 25.4216 44.873 16.7676 44.873C16.6516 44.4786 16.5355 44.0841 16.416 43.6777C16.0498 42.6947 15.5272 41.9568 14.7988 41.2168C14.7542 41.1705 14.7096 41.1242 14.6637 41.0764C13.7972 40.2464 12.6282 39.8831 11.4941 39.5996C11.4941 36.5368 11.4941 33.474 11.4941 30.3184C11.9814 30.1791 12.4687 30.0399 12.9707 29.8965C13.6635 29.5714 14.2342 29.2146 14.7988 28.7012C14.872 28.6378 14.872 28.6378 14.9466 28.5732C15.9703 27.6311 16.4172 26.3587 16.7676 25.0449ZM26.1191 37.9824C25.9537 38.2226 25.9082 38.3582 25.9082 38.6504C25.9947 38.9533 26.1001 39.1034 26.3301 39.3184C26.6804 39.4444 26.9902 39.4767 27.3609 39.4772C27.438 39.4776 27.438 39.4776 27.5166 39.4779C27.6851 39.4785 27.8535 39.4781 28.022 39.4777C28.1399 39.4778 28.2578 39.4779 28.3757 39.4781C28.6223 39.4783 28.8689 39.478 29.1155 39.4773C29.4306 39.4765 29.7457 39.477 30.0609 39.4778C30.3042 39.4783 30.5475 39.4782 30.7909 39.4778C30.9071 39.4777 31.0232 39.4778 31.1394 39.4782C31.3021 39.4785 31.4647 39.478 31.6274 39.4772C31.7198 39.4771 31.8121 39.477 31.9073 39.4768C32.2999 39.4497 32.5726 39.4002 32.8604 39.125C33.0178 38.8842 33.0801 38.7607 33.0801 38.4746C32.9948 38.1836 32.9196 38.0247 32.6861 37.8292C32.4038 37.6779 32.1762 37.6614 31.8639 37.6648C31.8069 37.6643 31.7499 37.6638 31.6912 37.6633C31.5037 37.6621 31.3164 37.6629 31.1289 37.6638C30.9981 37.6636 30.8673 37.6634 30.7365 37.663C30.4627 37.6626 30.189 37.6632 29.9152 37.6645C29.5648 37.6661 29.2144 37.6652 28.864 37.6635C28.594 37.6625 28.3241 37.6628 28.0541 37.6635C27.9249 37.6637 27.7957 37.6635 27.6665 37.6628C27.4858 37.6621 27.3051 37.6632 27.1244 37.6648C27.0713 37.6642 27.0183 37.6636 26.9636 37.6631C26.6025 37.6688 26.3967 37.7538 26.1191 37.9824Z" fill="#1447E6" fill-opacity="0.2"/>
<path d="M20.6069 16.0162C20.8689 16.0165 21.131 16.0156 21.3931 16.0149C21.9052 16.0137 22.4172 16.0136 22.9292 16.014C23.3459 16.0143 23.7626 16.0142 24.1793 16.0138C24.2686 16.0137 24.2686 16.0137 24.3598 16.0136C24.4808 16.0135 24.6018 16.0134 24.7228 16.0133C25.855 16.0124 26.9872 16.0127 28.1194 16.0135C29.1523 16.0142 30.1852 16.0133 31.2181 16.0117C32.2819 16.0099 33.3457 16.0093 34.4095 16.0097C35.0054 16.01 35.6014 16.0098 36.1973 16.0086C36.7047 16.0075 37.2121 16.0075 37.7195 16.0087C37.9777 16.0093 38.2359 16.0095 38.4941 16.0084C39.9423 16.0027 41.3063 16.0671 42.6426 16.6776C42.7242 16.7146 42.8057 16.7515 42.8898 16.7896C43.7367 17.1929 44.4239 17.7241 45.1035 18.3651C45.1519 18.409 45.2003 18.4528 45.2502 18.498C46.3875 19.5679 47.259 21.308 47.4238 22.8651C47.4238 23.0043 47.4238 23.1435 47.4238 23.287C35.5902 23.287 23.7566 23.287 11.5645 23.287C11.647 22.2963 11.647 22.2963 11.7798 21.8675C11.795 21.8176 11.8102 21.7677 11.8259 21.7163C12.2297 20.45 12.8969 19.3943 13.8145 18.4354C13.8574 18.388 13.9004 18.3406 13.9446 18.2917C15.7096 16.4103 18.1524 16.0109 20.6069 16.0162Z" fill="#1447E6" fill-opacity="0.2"/>
<path d="M26.7521 25.0449C28.562 25.0449 30.3718 25.0449 32.2365 25.0449C32.2409 25.8425 32.2452 26.6401 32.2497 27.4619C32.2526 27.8377 32.2526 27.8377 32.2555 28.2212C32.2565 28.5304 32.2565 28.5304 32.2567 28.6758C32.257 28.776 32.2577 28.8762 32.2588 28.9763C32.2687 29.9408 32.1498 30.7817 31.4711 31.5167C30.8296 32.1078 30.1249 32.3245 29.2576 32.3088C28.5034 32.2447 27.9102 31.9353 27.4028 31.3791C26.9416 30.8017 26.7428 30.2098 26.7442 29.4751C26.7442 29.4262 26.7441 29.3774 26.7441 29.3271C26.7442 29.17 26.7447 29.0129 26.7453 28.8558C26.7454 28.7584 26.7455 28.6611 26.7455 28.5637C26.7459 28.2037 26.7468 27.8438 26.7478 27.4839C26.7492 26.679 26.7507 25.8742 26.7521 25.0449ZM28.9318 27.084C28.6695 27.4058 28.6146 27.628 28.6132 28.0398C28.613 28.0897 28.6127 28.1396 28.6124 28.191C28.6122 28.296 28.6127 28.4009 28.6139 28.5059C28.6154 28.6656 28.6139 28.8251 28.6121 28.9849C28.6123 29.0873 28.6127 29.1898 28.6132 29.2922C28.6135 29.3846 28.6139 29.4769 28.6142 29.572C28.6565 29.8674 28.7449 30.0181 28.9318 30.248C29.2302 30.4469 29.4956 30.4346 29.8459 30.3887C30.1013 30.2397 30.2327 30.0993 30.3381 29.8262C30.3532 29.6501 30.3611 29.482 30.3617 29.306C30.3624 29.2308 30.3624 29.2308 30.3631 29.1541C30.3638 29.0484 30.3642 28.9426 30.3641 28.8368C30.3645 28.6758 30.367 28.515 30.3697 28.354C30.3701 28.2509 30.3704 28.1478 30.3705 28.0447C30.3715 27.997 30.3725 27.9494 30.3736 27.9002C30.3702 27.5503 30.2767 27.3526 30.0568 27.084C29.6354 26.8206 29.3533 26.8206 28.9318 27.084Z" fill="#1447E6" fill-opacity="0.2"/>
<path d="M43.9785 25.0449C45.1387 25.0449 46.2988 25.0449 47.4941 25.0449C47.4941 26.2283 47.4941 27.4116 47.4941 28.6309C46.4813 28.3192 45.8367 28.0243 45.1035 27.2949C45.0595 27.2533 45.0154 27.2117 44.97 27.1689C44.6807 26.8723 44.4917 26.5356 44.3037 26.1699C44.2794 26.1232 44.255 26.0765 44.2299 26.0283C44.2073 25.9822 44.1847 25.9362 44.1614 25.8887C44.1313 25.8278 44.1313 25.8278 44.1006 25.7656C44.0248 25.5341 44.0087 25.2867 43.9785 25.0449Z" fill="#1447E6" fill-opacity="0.2"/>
<path d="M11.4941 25.0449C12.6543 25.0449 13.8145 25.0449 15.0098 25.0449C14.9305 25.6793 14.9305 25.6793 14.8318 25.8837C14.8099 25.9291 14.788 25.9745 14.7655 26.0212C14.7417 26.0674 14.7179 26.1136 14.6934 26.1611C14.6685 26.21 14.6436 26.2588 14.618 26.3092C14.3865 26.7454 14.101 27.094 13.7441 27.4355C13.7027 27.4791 13.6613 27.5227 13.6186 27.5677C13.3224 27.8586 12.9863 28.0446 12.6191 28.231C12.5724 28.2547 12.5257 28.2785 12.4775 28.303C12.1429 28.4655 11.8745 28.5358 11.4941 28.6309C11.4941 27.4475 11.4941 26.2641 11.4941 25.0449Z" fill="#1447E6" fill-opacity="0.2"/>
<path d="M47.4941 41.2871C47.5011 41.71 47.5062 42.1328 47.5096 42.5557C47.511 42.6995 47.5129 42.8432 47.5154 42.987C47.5188 43.194 47.5204 43.4009 47.5216 43.608C47.5231 43.6719 47.5245 43.7359 47.526 43.8018C47.5261 44.1928 47.4837 44.4281 47.2129 44.7324C47.0115 44.8554 46.8631 44.8904 46.6286 44.889C46.54 44.889 46.54 44.889 46.4495 44.889C46.3864 44.8883 46.3232 44.8875 46.2582 44.8868C46.193 44.8866 46.1279 44.8864 46.0608 44.8862C45.853 44.8854 45.6453 44.8836 45.4375 44.8818C45.2965 44.8811 45.1555 44.8805 45.0145 44.8799C44.6692 44.8784 44.3239 44.8759 43.9785 44.873C44.0437 44.2679 44.0437 44.2679 44.1565 44.0342C44.1784 43.9889 44.2003 43.9435 44.2228 43.8968C44.2466 43.8506 44.2704 43.8044 44.2949 43.7568C44.3199 43.7079 44.3448 43.659 44.3705 43.6087C44.6022 43.1722 44.8873 42.8245 45.2441 42.4824C45.2915 42.4328 45.3389 42.3833 45.3878 42.3322C45.8686 41.8586 46.7908 41.2871 47.4941 41.2871Z" fill="#1447E6" fill-opacity="0.2"/>
<path d="M11.4945 41.2871C11.6386 41.3297 11.7826 41.3727 11.9266 41.4159C12.0469 41.4518 12.0469 41.4518 12.1696 41.4884C12.8593 41.7192 13.3742 42.1147 13.8851 42.623C13.9292 42.6646 13.9732 42.7063 14.0186 42.7491C14.308 43.0457 14.497 43.3823 14.685 43.748C14.7093 43.7948 14.7336 43.8415 14.7587 43.8897C14.7813 43.9357 14.8039 43.9818 14.8272 44.0293C14.8473 44.0699 14.8674 44.1105 14.888 44.1523C14.9656 44.3892 14.9837 44.6254 15.0101 44.873C14.5973 44.88 14.1845 44.8851 13.7716 44.8885C13.6313 44.8899 13.4909 44.8918 13.3506 44.8943C13.1484 44.8977 12.9464 44.8993 12.7442 44.9005C12.6506 44.9027 12.6506 44.9027 12.5551 44.9049C12.1679 44.9051 11.9369 44.8589 11.6351 44.5918C11.5104 44.3884 11.4772 44.2381 11.4786 44.0011C11.4786 43.9406 11.4786 43.8801 11.4786 43.8177C11.4793 43.753 11.48 43.6883 11.4808 43.6217C11.481 43.555 11.4812 43.4883 11.4814 43.4196C11.4822 43.2068 11.4839 42.994 11.4857 42.7812C11.4864 42.6369 11.4871 42.4925 11.4877 42.3481C11.4892 41.9944 11.4916 41.6408 11.4945 41.2871Z" fill="#1447E6" fill-opacity="0.2"/>
</g>
<defs>
<clipPath id="clip0_1923_7386">
<rect width="36" height="36" fill="white" transform="translate(11.4941 12.459)"/>
</clipPath>
</defs>
</svg>
