<svg width="59" height="59" viewBox="0 0 59 59" fill="none" xmlns="http://www.w3.org/2000/svg">
<rect width="58.9888" height="58.9888" rx="29.4944" fill="white"/>
<g clip-path="url(#clip0_1923_7363)">
<path d="M22.3926 15.2207C23.1045 15.2998 23.1045 15.2998 23.3461 15.3604C23.4288 15.3808 23.4288 15.3808 23.5131 15.4016C23.5711 15.4164 23.6291 15.4311 23.6888 15.4463C23.7833 15.4698 23.7833 15.4698 23.8796 15.4938C24.0856 15.5452 24.2914 15.5972 24.4973 15.6492C24.6411 15.6852 24.7849 15.7212 24.9287 15.7571C25.2289 15.8323 25.529 15.9077 25.8292 15.9834C26.2144 16.0805 26.5997 16.1771 26.9851 16.2735C27.2815 16.3477 27.5778 16.422 27.8741 16.4964C28.0163 16.5321 28.1585 16.5678 28.3006 16.6034C28.4986 16.6531 28.6965 16.7029 28.8944 16.7529C28.9534 16.7676 29.0124 16.7824 29.0732 16.7976C29.478 16.9001 29.478 16.9001 29.6348 16.9785C29.6913 17.1373 29.7396 17.2927 29.7845 17.4548C29.7981 17.5026 29.8118 17.5503 29.8259 17.5996C29.8697 17.7528 29.9126 17.9062 29.9556 18.0596C29.9848 18.1625 30.014 18.2654 30.0433 18.3683C30.0846 18.5134 30.1259 18.6585 30.1667 18.8038C30.2202 18.9938 30.2755 19.1819 30.3379 19.3691C30.4662 19.3931 30.4662 19.3931 30.5972 19.4175C30.6694 19.4309 30.6694 19.4309 30.743 19.4447C30.9724 19.4371 31.0684 19.3683 31.252 19.2285C31.4146 19.0533 31.5618 18.8675 31.709 18.6792C31.7873 18.5806 31.8657 18.482 31.9441 18.3834C31.9783 18.3398 32.0125 18.2962 32.0478 18.2513C32.2016 18.059 32.3595 17.8705 32.5176 17.6816C33.039 17.8085 33.5603 17.9356 34.0816 18.063C34.3236 18.1222 34.5657 18.1813 34.8078 18.2401C35.0858 18.3078 35.3638 18.3758 35.6418 18.4438C35.7291 18.465 35.8164 18.4862 35.9064 18.508C35.9866 18.5277 36.0668 18.5474 36.1495 18.5677C36.2561 18.5937 36.2561 18.5937 36.3648 18.6202C36.5254 18.666 36.5254 18.666 36.5957 18.7363C36.6026 18.8697 36.6044 19.0034 36.6044 19.137C36.6045 19.2246 36.6046 19.3122 36.6048 19.4024C36.6046 19.5008 36.6044 19.5993 36.6042 19.6977C36.6042 19.8013 36.6043 19.9049 36.6043 20.0085C36.6045 20.2946 36.6042 20.5806 36.6039 20.8667C36.6036 21.1746 36.6037 21.4825 36.6037 21.7905C36.6038 22.3245 36.6035 22.8585 36.6031 23.3925C36.6026 24.1645 36.6024 24.9366 36.6023 25.7087C36.6021 26.9612 36.6017 28.2137 36.601 29.4662C36.6004 30.6832 36.5999 31.9002 36.5996 33.1172C36.5995 33.1922 36.5995 33.2671 36.5995 33.3444C36.5994 33.7204 36.5993 34.0964 36.5992 34.4725C36.5985 37.5943 36.5973 40.7161 36.5957 43.8379C35.8662 43.678 35.1385 43.514 34.4141 43.3322C34.3318 43.3117 34.2496 43.2912 34.1648 43.2701C33.8984 43.2036 33.6321 43.1369 33.3657 43.0702C33.1787 43.0235 32.9917 42.9768 32.8046 42.9301C32.4155 42.8328 32.0265 42.7355 31.6374 42.6381C31.1878 42.5255 30.7381 42.4131 30.2884 42.3009C29.9004 42.204 29.5123 42.107 29.1243 42.0099C28.8933 41.9521 28.6624 41.8944 28.4314 41.8368C28.1752 41.7728 27.9191 41.7086 27.663 41.6444C27.5484 41.6159 27.5484 41.6159 27.4315 41.5868C27.3621 41.5693 27.2928 41.5519 27.2213 41.5339C27.1608 41.5188 27.1004 41.5037 27.0381 41.4881C26.8926 41.4473 26.8926 41.4473 26.752 41.377C26.679 41.2303 26.679 41.2303 26.6023 41.0391C26.5745 40.9705 26.5467 40.9019 26.5181 40.8312C26.4894 40.759 26.4607 40.6867 26.4312 40.6123C26.3877 40.5048 26.3877 40.5048 26.3434 40.3951C26.1343 39.8755 26.1343 39.8755 26.0488 39.6191C25.4871 39.5656 25.217 39.6908 24.7832 40.041C24.6927 40.1295 24.6927 40.1295 24.6003 40.2198C24.1035 40.6721 24.1035 40.6721 23.7826 40.6755C23.4479 40.6329 23.128 40.5433 22.8085 40.4364C22.6718 40.3919 22.5321 40.3571 22.3926 40.3223C22.3926 38.35 22.3926 36.3777 22.3926 34.3457C23.0191 34.2065 23.0191 34.2065 23.6582 34.0645C23.9594 33.8195 23.9594 33.8195 23.9746 33.5371C23.957 33.2923 23.957 33.2923 23.8296 33.1196C23.4024 32.8458 22.8515 33.067 22.3926 33.1504C22.3926 27.2336 22.3926 21.3168 22.3926 15.2207ZM28.2988 21.4785C28.1973 21.6816 28.202 21.8158 28.2285 22.041C28.5078 22.4035 28.7786 22.4679 29.2041 22.5552C29.7281 22.6754 30.1677 22.8435 30.6264 23.1245C30.8942 23.2848 31.0806 23.3482 31.3926 23.3066C31.5967 23.1479 31.7154 23.0209 31.8188 22.7837C31.8123 22.5137 31.6995 22.3921 31.5332 22.1816C31.3664 22.0529 31.1888 21.9565 31.0015 21.8608C30.9498 21.8339 30.8981 21.807 30.8448 21.7793C30.1476 21.4334 28.9428 20.8704 28.2988 21.4785ZM24.9966 22.4533C24.5735 22.8975 24.0938 23.5873 24.0801 24.2207C24.1715 24.5005 24.2302 24.6108 24.4932 24.748C24.7553 24.79 24.8432 24.7901 25.0645 24.6426C25.241 24.4137 25.3742 24.1586 25.5097 23.904C25.7628 23.4473 26.0439 23.1805 26.4707 22.8848C26.7032 22.7201 26.8688 22.6002 26.9673 22.3223C26.962 22.0675 26.9111 21.9573 26.752 21.7598C26.1374 21.3435 25.4369 22.0456 24.9966 22.4533ZM32.4121 24.1548C32.2763 24.4207 32.2677 24.5563 32.3066 24.8535C32.37 25.0351 32.4412 25.2101 32.5195 25.3858C32.6991 25.8345 32.6598 26.2809 32.6431 26.7555C32.6372 27.0936 32.6418 27.3243 32.8691 27.5957C33.1007 27.7115 33.2264 27.7513 33.48 27.6924C33.6996 27.5618 33.8195 27.4288 33.893 27.182C34.106 26.155 33.8734 25.0521 33.3613 24.1504C33.0326 23.9312 32.7158 23.9042 32.4121 24.1548ZM23.8691 26.4004C23.5956 26.9474 23.9767 27.9315 24.1155 28.5047C24.1462 28.6331 24.175 28.762 24.2034 28.891C24.2935 29.2719 24.3696 29.5491 24.7129 29.7754C24.959 29.8398 24.959 29.8398 25.2051 29.7754C25.3908 29.6245 25.4656 29.5622 25.5566 29.3535C25.5639 28.9034 25.4307 28.4775 25.3163 28.0444C25.2505 27.7924 25.1935 27.5426 25.1521 27.2853C25.1439 27.235 25.1356 27.1847 25.1272 27.1328C25.1052 26.9926 25.0849 26.8521 25.0647 26.7116C24.9806 26.4244 24.8755 26.3035 24.6426 26.1191C24.2717 26.0606 24.0986 26.1004 23.8691 26.4004ZM31.7565 29.1731C31.7133 29.2428 31.67 29.3125 31.6255 29.3843C31.2212 30.0113 30.7529 30.5703 30.2278 31.0995C30.0935 31.3025 30.101 31.435 30.127 31.6738C30.2641 31.9111 30.3524 32.0048 30.6104 32.1001C31.0795 32.0907 31.3974 31.6986 31.7084 31.3808C32.5434 30.474 32.5434 30.474 32.9438 29.3755C32.8539 29.095 32.7721 29.0059 32.5176 28.8613C32.1763 28.8114 31.9629 28.8977 31.7565 29.1731ZM27.3276 32.2627C27.2486 32.2783 27.1695 32.2939 27.088 32.3099C26.9323 32.3407 26.7767 32.3718 26.6212 32.4032C26.4783 32.4317 26.3353 32.4593 26.1921 32.4859C26.1294 32.4976 26.0667 32.5093 26.0021 32.5214C25.9199 32.5364 25.9199 32.5364 25.8361 32.5516C25.6266 32.6064 25.5317 32.688 25.416 32.8691C25.3361 33.1196 25.3248 33.2399 25.4248 33.4844C25.5863 33.6782 25.6637 33.7186 25.9082 33.7832C26.1384 33.7765 26.3622 33.741 26.5894 33.7041C26.6541 33.6941 26.7189 33.6842 26.7856 33.6739C27.222 33.6044 27.6558 33.524 28.0879 33.4316C28.1395 33.4208 28.1912 33.41 28.2444 33.3989C28.5308 33.3341 28.7635 33.2535 29.002 33.0801C29.1123 32.8594 29.097 32.6906 29.0723 32.4473C28.9375 32.2305 28.9375 32.2305 28.7207 32.0957C28.2477 32.0502 27.7895 32.1694 27.3276 32.2627ZM28.4482 35.2949C28.2521 35.5257 28.2233 35.661 28.2285 35.9629C28.4477 36.3584 28.762 36.6614 29.0811 36.978C29.1612 37.0576 29.1612 37.0576 29.2429 37.1387C29.8808 37.7677 29.8808 37.7677 30.6763 38.1558C30.9052 38.1577 30.9052 38.1577 31.1025 38.0371C31.3021 37.8023 31.3379 37.6775 31.3223 37.3691C31.1251 37.012 30.7879 36.7882 30.4664 36.5515C30.2969 36.4094 30.1472 36.2649 29.994 36.106C29.9451 36.0553 29.8961 36.0046 29.8457 35.9523C29.7474 35.8494 29.6501 35.7457 29.5538 35.641C29.3274 35.4044 29.1958 35.2747 28.8745 35.1845C28.6455 35.173 28.6455 35.173 28.4482 35.2949ZM32.6934 38.0371C32.5 38.2031 32.5 38.2031 32.4429 38.4546C32.4478 38.734 32.4774 38.8457 32.6582 39.0566C33.3415 39.4054 34.2933 39.3703 35.0356 39.2896C35.0872 39.2841 35.1388 39.2786 35.192 39.273C35.5771 39.2225 35.8957 39.1238 36.1738 38.8457C36.2023 38.6287 36.2176 38.4916 36.1738 38.2832C35.9966 38.0522 35.9966 38.0522 35.752 37.9316C35.5962 37.9301 35.5962 37.9301 35.4309 37.9577C35.0542 38.0041 34.6853 38.0124 34.3062 38.0107C34.2442 38.011 34.1823 38.0113 34.1184 38.0116C33.7651 38.011 33.4254 37.9908 33.0761 37.9364C32.9158 37.9211 32.9158 37.9211 32.6934 38.0371Z" fill="#1447E6" fill-opacity="0.2"/>
<path d="M47.4941 15.291C47.4941 23.5513 47.4941 31.8116 47.4941 40.3223C47.1124 40.4919 46.7416 40.6566 46.3516 40.8013C46.2292 40.8476 46.2292 40.8476 46.1044 40.8949C45.862 40.959 45.7559 40.9803 45.5254 40.8848C45.39 40.7525 45.2771 40.6277 45.1606 40.4805C45.1275 40.4401 45.0944 40.3997 45.0602 40.3582C44.8874 40.146 44.7202 39.93 44.5553 39.7117C44.524 39.6704 44.4928 39.6291 44.4606 39.5865C44.4012 39.5074 44.3424 39.4278 44.2843 39.3477C44.1329 39.144 44.0126 38.9964 43.7676 38.916C43.5533 38.9291 43.404 38.9412 43.232 39.0744C43.11 39.2285 43.09 39.3396 43.0598 39.5334C43.0488 39.6022 43.0378 39.671 43.0265 39.7419C42.955 40.247 42.8874 40.7526 42.8245 41.2589C42.8075 41.3858 42.8075 41.3858 42.7901 41.5154C42.7803 41.5918 42.7705 41.6683 42.7604 41.7471C42.7075 41.9611 42.6681 42.0129 42.502 42.1504C42.3543 42.2183 42.3543 42.2183 42.1818 42.2774C42.1169 42.2999 42.0521 42.3225 41.9852 42.3457C41.9149 42.3694 41.8446 42.3932 41.7722 42.4176C41.699 42.4429 41.6258 42.4681 41.5505 42.4941C41.3156 42.5749 41.0804 42.6549 40.8452 42.7349C40.6909 42.7879 40.5366 42.8409 40.3823 42.894C39.5201 43.1902 38.6559 43.4793 37.791 43.7676C37.791 41.8881 37.791 40.0087 37.791 38.0723C37.9766 38.0027 38.1623 37.933 38.3535 37.8613C38.5606 37.7083 38.5606 37.7083 38.7402 37.5273C38.8059 37.4649 38.8717 37.4024 38.9394 37.3381C39.0013 37.2787 39.0632 37.2194 39.127 37.1582C39.2245 37.0711 39.3225 36.9846 39.4214 36.8989C39.4653 36.8602 39.5093 36.8215 39.5546 36.7816C39.6494 36.7004 39.7461 36.6212 39.8441 36.5438C40.0901 36.3446 40.235 36.2104 40.3706 35.9189C40.3963 35.6413 40.3569 35.5429 40.1816 35.3301C39.9601 35.2193 39.7936 35.235 39.5488 35.2598C39.387 35.3753 39.2673 35.4757 39.1313 35.6157C39.0581 35.6868 38.9849 35.7578 38.9116 35.8289C38.8765 35.8638 38.8413 35.8986 38.8051 35.9346C38.6712 36.0667 38.5333 36.1935 38.3931 36.3188C38.3526 36.3559 38.312 36.393 38.2703 36.4312C38.1426 36.5254 38.1426 36.5254 37.791 36.666C37.791 30.726 37.791 24.786 37.791 18.666C41.1133 17.4795 41.1133 17.4795 42.7744 16.8994C44.1706 16.4116 44.1706 16.4116 45.5627 15.9123C45.6232 15.8903 45.6837 15.8683 45.746 15.8457C46.0204 15.7459 46.2946 15.6456 46.5685 15.5445C46.6623 15.5102 46.756 15.4758 46.8498 15.4415C46.9292 15.4122 47.0087 15.3828 47.0905 15.3526C47.2832 15.291 47.2832 15.291 47.4941 15.291ZM41.166 23.7285C41.0856 23.9648 41.0647 24.085 41.1726 24.3124C41.3436 24.5542 41.5439 24.7399 41.7637 24.937C41.825 24.9932 41.825 24.9932 41.8875 25.0506C42.215 25.3662 42.215 25.3662 42.6338 25.5127C42.9131 25.4792 43.0176 25.414 43.2051 25.2051C43.3115 24.9762 43.3115 24.9762 43.2754 24.7129C43.1423 24.4933 42.968 24.3271 42.7832 24.1504C42.7272 24.093 42.6712 24.0356 42.6135 23.9765C42.2476 23.6102 42.2476 23.6102 41.7769 23.4253C41.4717 23.4512 41.3633 23.4953 41.166 23.7285ZM43.6357 26.6113C43.4446 26.8811 43.4368 27.0693 43.4863 27.3848C43.5207 27.5183 43.556 27.6515 43.5918 27.7847C43.7183 28.2806 43.7086 28.7564 43.6833 29.2658C43.6704 29.6477 43.6704 29.6477 43.8294 29.9907C44.0088 30.1546 44.0791 30.1929 44.3213 30.2192C44.5435 30.2156 44.5435 30.2156 44.6992 30.083C44.9887 29.6901 44.9901 29.2691 44.9893 28.7998C44.9891 28.735 44.989 28.6702 44.9889 28.6034C44.9763 27.8869 44.9093 27.086 44.4004 26.541C44.1084 26.395 43.8993 26.428 43.6357 26.6113ZM42.2075 32.2056C41.7454 32.7815 41.7454 32.7815 41.5151 33.0477C41.4827 33.0853 41.4503 33.123 41.417 33.1618C41.3297 33.2627 41.2419 33.363 41.1539 33.4632C41.0193 33.6511 40.9706 33.7651 40.9551 33.9941C41.0382 34.2172 41.1056 34.3681 41.2935 34.5171C41.5145 34.5739 41.6507 34.5532 41.8691 34.4863C42.0043 34.3731 42.1064 34.267 42.2207 34.1348C42.2853 34.0667 42.2853 34.0667 42.3512 33.9972C42.7027 33.6212 43.0274 33.225 43.3457 32.8208C43.3862 32.7707 43.4267 32.7206 43.4685 32.669C43.7031 32.3661 43.8364 32.1418 43.8379 31.7441C43.7137 31.5471 43.6248 31.4267 43.416 31.3223C42.821 31.2429 42.5428 31.786 42.2075 32.2056Z" fill="#1447E6" fill-opacity="0.2"/>
<path d="M21.1971 15.291C21.1971 21.2774 21.1971 27.2638 21.1971 33.4316C20.9651 33.5245 20.7331 33.6173 20.494 33.7129C20.3517 33.9827 20.3261 34.1107 20.4105 34.4028C20.6053 34.6252 20.6053 34.6252 21.1971 34.6973C21.1971 36.5535 21.1971 38.4098 21.1971 40.3223C20.4062 40.6386 20.4062 40.6386 20.0998 40.7456C20.0304 40.7699 19.961 40.7942 19.8895 40.8193C19.8162 40.8448 19.7428 40.8703 19.6673 40.8966C19.549 40.938 19.549 40.938 19.4284 40.9802C19.2592 41.0393 19.09 41.0984 18.9208 41.1575C18.5168 41.2985 18.113 41.4398 17.7091 41.5812C17.6173 41.6134 17.5254 41.6455 17.4336 41.6777C16.3714 42.0494 15.3106 42.4252 14.2502 42.8019C13.3328 43.1276 12.4138 43.4488 11.494 43.7676C11.2931 41.5345 11.2931 41.5345 11.6114 40.9507C11.8928 40.637 12.2283 40.4342 12.6066 40.2547C12.8597 40.1339 13.1067 39.9948 13.2826 39.7729C13.3489 39.515 13.3398 39.382 13.2518 39.127C13.0343 38.9425 12.8066 38.8395 12.5487 38.7051C12.2007 38.5195 11.8526 38.3338 11.494 38.1426C11.494 31.7153 11.494 25.288 11.494 18.666C12.285 18.3496 12.285 18.3496 12.6192 18.2327C12.7317 18.1932 12.7317 18.1932 12.8464 18.1529C12.9253 18.1254 13.0043 18.0978 13.0857 18.0695C13.2118 18.0252 13.2118 18.0252 13.3406 17.9801C13.5634 17.9021 13.7862 17.8242 14.009 17.7464C14.2302 17.6691 14.4514 17.5916 14.6725 17.5141C15.7219 17.1466 16.7718 16.7808 17.8221 16.416C17.8909 16.4855 17.9597 16.5549 18.0285 16.6244C18.069 16.6654 18.1096 16.7063 18.1514 16.7485C18.236 16.8339 18.3204 16.9194 18.4048 17.005C18.4414 17.0418 18.478 17.0785 18.5157 17.1164C18.5528 17.154 18.59 17.1915 18.6283 17.2302C18.8172 17.4051 18.9307 17.4689 19.1888 17.4971C19.4329 17.4903 19.4329 17.4903 19.5863 17.3768C19.8276 17.0401 19.8438 16.6075 19.8991 16.2034C19.937 15.9957 19.974 15.8299 20.0721 15.6426C20.2943 15.4938 20.5173 15.4249 20.7753 15.3613C20.9862 15.291 20.9862 15.291 21.1971 15.291ZM18.0331 20.4941C17.9111 20.6784 17.9111 20.6784 17.8142 20.8858C17.7588 20.9977 17.7588 20.9977 17.7023 21.1118C17.665 21.1893 17.6277 21.2668 17.5892 21.3467C17.5506 21.4247 17.5119 21.5028 17.4721 21.5832C17.2731 21.9372 17.2731 21.9372 17.1893 22.3223C16.9402 22.1837 16.7517 22.0393 16.5568 21.8317C16.5059 21.7788 16.455 21.7259 16.4026 21.6713C16.297 21.5602 16.1919 21.4487 16.0873 21.3368C15.7893 21.0231 15.7893 21.0231 15.406 20.8388C15.1676 20.8477 15.054 20.9076 14.869 21.0566C14.7345 21.2339 14.7266 21.3156 14.7449 21.5389C14.8058 21.7889 14.8776 21.8869 15.0536 22.0718C15.1095 22.131 15.1654 22.1901 15.223 22.2511C15.2924 22.3219 15.3619 22.3925 15.4315 22.4629C15.4755 22.5074 15.5194 22.552 15.5647 22.5979C15.87 22.9063 16.1773 23.2127 16.4862 23.5176C16.4696 23.5525 16.453 23.5875 16.4359 23.6235C16.4009 23.6974 16.4009 23.6974 16.3651 23.7727C16.339 23.8276 16.3129 23.8825 16.286 23.9391C16.2287 24.0602 16.1716 24.1813 16.1148 24.3026C15.9794 24.5911 15.8424 24.8776 15.6944 25.1598C15.6588 25.2295 15.6588 25.2295 15.6226 25.3006C15.5582 25.4265 15.4922 25.5515 15.426 25.6764C15.3393 25.9866 15.4176 26.1249 15.5721 26.4004C15.7489 26.5772 15.8808 26.5684 16.1228 26.5872C16.4319 26.4936 16.5777 26.207 16.7272 25.9394C16.8331 25.7342 16.935 25.5273 17.0355 25.3193C17.0708 25.2475 17.1061 25.1756 17.1425 25.1015C17.2289 24.9254 17.3148 24.7489 17.4003 24.5723C17.5409 24.5723 17.5409 24.5723 17.6632 24.6798C17.7352 24.7535 17.7352 24.7535 17.8087 24.8288C17.8875 24.9087 17.8875 24.9087 17.9678 24.9903C18.0227 25.0467 18.0776 25.103 18.1342 25.1611C18.2423 25.2717 18.3506 25.3821 18.4591 25.4924C18.5312 25.5664 18.5312 25.5664 18.6048 25.6419C18.798 25.8266 18.9164 25.9042 19.1844 25.939C19.4461 25.9278 19.4461 25.9278 19.6459 25.7632C19.802 25.5655 19.802 25.5655 19.8524 25.3325C19.7543 24.9051 19.4618 24.6623 19.1581 24.3613C19.0657 24.2682 18.9735 24.175 18.8812 24.0817C18.6234 23.8219 18.3639 23.5638 18.1034 23.3066C18.1962 23.0063 18.3119 22.7368 18.4577 22.4585C18.4985 22.3793 18.5393 22.3001 18.5813 22.2184C18.6671 22.0531 18.7533 21.8879 18.84 21.723C18.9009 21.6041 18.9009 21.6041 18.9631 21.4829C19.0005 21.4112 19.0379 21.3395 19.0764 21.2657C19.166 21.0363 19.1817 20.8788 19.1581 20.6348C19.0119 20.3717 18.9243 20.2979 18.6351 20.2085C18.3248 20.2139 18.2547 20.2839 18.0331 20.4941ZM12.9706 30.0566C12.803 30.308 12.7862 30.3931 12.83 30.6895C12.9429 30.8753 13.0832 31.0305 13.2299 31.1904C13.2672 31.2331 13.3044 31.2758 13.3429 31.3198C13.7283 31.7599 13.7283 31.7599 14.2406 32.0166C14.4601 32.0259 14.5514 32.0112 14.7284 31.8848C14.904 31.6214 14.901 31.4938 14.869 31.1816C14.5879 30.7079 14.0656 30.0619 13.5306 29.8627C13.3034 29.8347 13.1606 29.941 12.9706 30.0566ZM15.5721 32.9395C15.4777 33.1723 15.4777 33.1723 15.5018 33.4316C15.8793 34.1719 16.9357 34.5833 17.6763 34.8384C18.1683 34.9887 18.1683 34.9887 18.6659 34.9082C18.8296 34.7799 18.9232 34.68 19.0087 34.4907C19.0231 34.253 18.9383 34.078 18.7994 33.8884C18.6 33.7313 18.3705 33.6827 18.1298 33.6162C17.6158 33.4646 17.1838 33.2753 16.7444 32.9642C16.4191 32.7323 16.4191 32.7323 16.0424 32.6143C15.7979 32.6711 15.7152 32.7329 15.5721 32.9395Z" fill="#1447E6" fill-opacity="0.2"/>
</g>
<defs>
<clipPath id="clip0_1923_7363">
<rect width="36" height="36" fill="white" transform="translate(11.4941 11.4941)"/>
</clipPath>
</defs>
</svg>
