<svg width="59" height="60" viewBox="0 0 59 60" fill="none" xmlns="http://www.w3.org/2000/svg">
<rect y="0.976562" width="58.9888" height="58.9888" rx="29.4944" fill="white"/>
<g clip-path="url(#clip0_1923_7381)">
<path d="M11.494 38.4868C12.849 38.4704 14.204 38.458 15.5591 38.4504C16.1883 38.4467 16.8175 38.4418 17.4467 38.4338C17.9953 38.4267 18.5438 38.4222 19.0924 38.4206C19.3828 38.4197 19.6731 38.4176 19.9634 38.4125C20.2371 38.4077 20.5105 38.4062 20.7842 38.4073C20.8843 38.4071 20.9844 38.4057 21.0845 38.403C21.8386 38.3836 21.8386 38.3836 22.1659 38.6397C22.3254 38.8162 22.4643 38.9973 22.6033 39.1899C22.6864 39.2767 22.771 39.3621 22.8582 39.4448C23.0709 39.6536 23.2646 39.8746 23.4589 40.1004C23.6385 40.3015 23.8302 40.4889 24.0239 40.6764C24.1502 40.8071 24.1502 40.8071 24.2345 40.9534C24.3547 41.1084 24.3547 41.1084 24.5679 41.1257C24.6531 41.1267 24.7383 41.1278 24.8261 41.1288C24.8736 41.1297 24.9211 41.1307 24.97 41.1316C25.1295 41.1344 25.289 41.1352 25.4485 41.1359C25.5627 41.1374 25.6769 41.1391 25.7912 41.1408C26.102 41.1451 26.4127 41.1475 26.7235 41.1493C26.9179 41.1504 27.1123 41.1519 27.3067 41.1534C27.9156 41.158 28.5245 41.1613 29.1334 41.1631C29.8351 41.1651 30.5365 41.1712 31.2381 41.181C31.781 41.1883 32.3239 41.1918 32.8669 41.1924C33.1908 41.1929 33.5146 41.195 33.8385 41.201C35.3148 41.3062 35.3148 41.3062 36.5968 40.7431C36.7659 40.5409 36.8903 40.3353 37.0174 40.104C37.101 40.0034 37.1867 39.9044 37.2767 39.8096C37.3128 39.7676 37.349 39.7256 37.3863 39.6824C37.6049 39.4326 37.8308 39.1892 38.0556 38.9449C38.2115 38.7797 38.2115 38.7797 38.3049 38.6185C38.4236 38.4868 38.4236 38.4868 38.5913 38.4522C38.6913 38.4526 38.6913 38.4526 38.7934 38.453C38.87 38.4526 38.9466 38.4522 39.0255 38.4518C39.1096 38.4528 39.1936 38.4538 39.2802 38.4549C39.3687 38.4548 39.4572 38.4548 39.5484 38.4547C39.7911 38.4547 40.0339 38.4563 40.2766 38.4583C40.5302 38.46 40.7839 38.4602 41.0375 38.4605C41.5179 38.4614 41.9982 38.4637 42.4786 38.4665C43.0254 38.4697 43.5723 38.4712 44.1191 38.4726C45.2441 38.4756 46.369 38.4805 47.494 38.4868C47.5012 38.7201 47.5056 38.9534 47.5094 39.1868C47.5115 39.2521 47.5136 39.3174 47.5157 39.3846C47.5243 40.0839 47.2645 40.5675 46.9139 41.1543C46.8548 41.2585 46.796 41.3629 46.7375 41.4675C46.6222 41.6728 46.5055 41.877 46.3869 42.0804C46.1861 42.4254 45.9961 42.7761 45.8065 43.1274C45.7404 43.2479 45.6743 43.3684 45.6082 43.4889C45.3206 44.0161 45.041 44.5476 44.7606 45.0786C44.363 45.8313 43.9642 46.5833 43.5609 47.333C43.5004 47.4455 43.5004 47.4455 43.4388 47.5602C43.4016 47.6292 43.3644 47.6983 43.326 47.7694C43.2779 47.8587 43.2779 47.8587 43.2288 47.9498C43.1977 48.0059 43.1666 48.0619 43.1346 48.1196C43.107 48.1802 43.0795 48.2408 43.0511 48.3033C42.9236 48.4712 42.9236 48.4712 42.7252 48.5148C42.603 48.5146 42.603 48.5146 42.4782 48.5144C42.4326 48.5148 42.387 48.5152 42.3401 48.5157C42.1862 48.5166 42.0324 48.515 41.8786 48.5135C41.7676 48.5136 41.6566 48.5139 41.5457 48.5144C41.2399 48.5151 40.9342 48.5137 40.6284 48.512C40.299 48.5105 39.9696 48.511 39.6401 48.5112C39.0691 48.5114 38.4981 48.5103 37.9271 48.5083C37.1015 48.5055 36.2759 48.5046 35.4503 48.5041C34.1109 48.5034 32.7715 48.501 31.4322 48.4977C30.1309 48.4945 28.8296 48.492 27.5282 48.4905C27.408 48.4903 27.408 48.4903 27.2853 48.4902C26.8831 48.4897 26.4809 48.4893 26.0787 48.4889C22.7406 48.4852 19.4024 48.479 16.0643 48.4712C15.9294 48.2207 15.7945 47.9702 15.6596 47.7198C15.6139 47.6348 15.5681 47.5498 15.5223 47.4648C15.1999 46.8661 14.8778 46.2671 14.5569 45.6675C14.4908 45.5439 14.4246 45.4203 14.3585 45.2968C14.3137 45.213 14.2688 45.1293 14.224 45.0456C14.0716 44.7608 13.9189 44.4761 13.7662 44.1914C13.3924 43.4945 13.0189 42.7975 12.6483 42.0988C12.6213 42.0479 12.5943 41.9969 12.5664 41.9444C12.4346 41.6959 12.3029 41.4473 12.1713 41.1987C12.1232 41.108 12.0751 41.0173 12.0271 40.9266C11.9642 40.8079 11.9642 40.8079 11.9001 40.6867C11.7797 40.4536 11.7797 40.4536 11.6279 40.2431C11.4354 39.9071 11.463 39.5715 11.4764 39.1943C11.4776 39.1261 11.4789 39.0579 11.4802 38.9876C11.4835 38.8206 11.4881 38.6537 11.494 38.4868Z" fill="#1447E6" fill-opacity="0.2"/>
<path d="M34.2754 12.4707C37.0366 12.4707 39.7977 12.4707 42.6426 12.4707C42.6426 14.559 42.6426 16.6473 42.6426 18.7988C40.6007 18.7988 38.5588 18.7988 36.4551 18.7988C36.4551 19.4485 36.4551 20.0982 36.4551 20.7676C38.0561 20.7676 39.6571 20.7676 41.3066 20.7676C41.121 21.1388 40.9354 21.5101 40.7441 21.8926C39.8892 23.605 39.3947 25.4058 39.9707 27.3066C40.2015 27.977 40.5038 28.599 40.8364 29.2227C40.9257 29.3914 41.0147 29.5602 41.1037 29.7291C41.1427 29.8025 41.1817 29.8758 41.2219 29.9514C41.3066 30.1191 41.3066 30.1191 41.3066 30.1895C39.7056 30.1895 38.1046 30.1895 36.4551 30.1895C36.4551 30.9552 36.4551 31.7209 36.4551 32.5098C38.2649 32.5098 40.0748 32.5098 41.9395 32.5098C41.9395 33.8091 41.9395 35.1085 41.9395 36.4473C41.6362 36.4401 41.3329 36.4329 41.0204 36.4256C40.7759 36.4228 40.5314 36.4211 40.2868 36.4202C40.03 36.4189 39.7735 36.4157 39.5169 36.408C38.307 36.3257 38.307 36.3257 37.2295 36.7489C37.0115 36.9622 36.8348 37.1934 36.6729 37.4512C36.5754 37.6041 36.46 37.7344 36.3364 37.8667C36.3012 37.9078 36.2659 37.9488 36.2296 37.9911C36.0199 38.23 35.8029 38.4624 35.5861 38.6948C35.4016 38.8916 35.4016 38.8916 35.2598 39.1191C33.1483 39.1191 31.0368 39.1191 28.8613 39.1191C28.8613 36.938 28.8613 34.757 28.8613 32.5098C30.648 32.5098 32.4346 32.5098 34.2754 32.5098C34.2754 31.7441 34.2754 30.9784 34.2754 30.1895C34.0815 30.196 33.8876 30.2025 33.6879 30.2092C33.4996 30.2136 33.3114 30.217 33.1231 30.2204C32.9925 30.2232 32.8619 30.227 32.7313 30.2319C32.5433 30.2387 32.3555 30.2419 32.1674 30.2444C32.1092 30.2473 32.0511 30.2502 31.9911 30.2532C31.8213 30.2533 31.6933 30.2468 31.5332 30.1895C31.3736 30.0204 31.2779 29.8371 31.1816 29.627C31.1581 29.5793 31.1345 29.5316 31.1103 29.4825C31.0465 29.3519 30.9883 29.22 30.9312 29.0864C30.9102 29.0375 30.8892 28.9886 30.8676 28.9382C29.9346 26.7197 29.9778 24.3003 30.8292 22.0656C31.2448 21.0559 31.2448 21.0559 31.5332 20.7676C32.4381 20.7676 33.343 20.7676 34.2754 20.7676C34.2754 18.0296 34.2754 15.2916 34.2754 12.4707Z" fill="#1447E6" fill-opacity="0.2"/>
<path d="M21.4787 12.4707C22.9637 12.4707 24.4487 12.4707 25.9787 12.4707C25.9787 13.1668 25.9787 13.8629 25.9787 14.5801C25.213 14.5801 24.4473 14.5801 23.6584 14.5801C23.6584 15.0905 23.6584 15.601 23.6584 16.127C24.9578 16.127 26.2572 16.127 27.5959 16.127C27.4915 16.3881 27.3852 16.6178 27.2515 16.8628C26.63 17.9929 26.63 17.9929 26.26 19.2207C26.247 19.2852 26.2341 19.3498 26.2207 19.4163C26.0209 20.8732 26.3361 22.102 27.0334 23.3691C27.1138 23.5179 27.1938 23.6669 27.2736 23.816C27.3234 23.9088 27.3737 24.0014 27.4245 24.0937C27.5959 24.4086 27.5959 24.4086 27.5959 24.5645C26.2966 24.5645 24.9972 24.5645 23.6584 24.5645C23.6584 25.1213 23.6584 25.6782 23.6584 26.252C24.9578 26.252 26.2572 26.252 27.5959 26.252C27.4969 26.5491 27.4167 26.7631 27.2669 27.0262C27.2124 27.1236 27.2124 27.1236 27.1568 27.223C27.0811 27.3566 27.0053 27.4901 26.9293 27.6235C26.1931 28.9416 25.9505 30.4398 26.3237 31.9187C26.577 32.7075 26.9582 33.4277 27.3709 34.1436C27.4001 34.1945 27.4293 34.2454 27.4594 34.2978C27.4989 34.3655 27.4989 34.3655 27.5392 34.4345C27.5959 34.5488 27.5959 34.5488 27.5959 34.6895C26.2966 34.6895 24.9972 34.6895 23.6584 34.6895C23.6584 35.5712 23.6584 36.4529 23.6584 37.3613C23.1662 36.9395 23.1662 36.9395 23.0028 36.706C22.7713 36.4742 22.6432 36.4662 22.3264 36.4555C22.2266 36.4558 22.2266 36.4558 22.1247 36.4561C21.9116 36.4532 21.6984 36.4503 21.4787 36.4473C21.4787 35.8672 21.4787 35.2871 21.4787 34.6895C20.597 34.6895 19.7153 34.6895 18.8069 34.6895C17.7063 32.4883 17.2512 30.3715 17.9936 27.9666C18.1635 27.4632 18.4133 26.9988 18.6662 26.5332C18.7359 26.394 18.7359 26.394 18.8069 26.252C19.6886 26.252 20.5703 26.252 21.4787 26.252C21.4787 25.6951 21.4787 25.1382 21.4787 24.5645C20.597 24.5645 19.7153 24.5645 18.8069 24.5645C17.7052 22.3611 17.2563 20.2491 17.9936 17.8441C18.1625 17.3394 18.4129 16.8746 18.6662 16.4082C18.7126 16.3154 18.7591 16.2226 18.8069 16.127C19.6886 16.127 20.5703 16.127 21.4787 16.127C21.4787 14.9204 21.4787 13.7138 21.4787 12.4707Z" fill="#1447E6" fill-opacity="0.2"/>
</g>
<defs>
<clipPath id="clip0_1923_7381">
<rect width="36" height="36" fill="white" transform="translate(11.4941 12.4707)"/>
</clipPath>
</defs>
</svg>
