<svg width="64" height="64" viewBox="0 0 64 64" fill="none" xmlns="http://www.w3.org/2000/svg">
<rect x="0.145508" y="0.539062" width="62.9213" height="62.9213" rx="31.4607" fill="white"/>
<g clip-path="url(#clip0_1800_6961)">
<path d="M41.6846 12.3128C41.7412 12.3274 41.7978 12.3421 41.8562 12.3571C45.0853 13.2168 47.8604 15.389 49.5574 18.2516C51.1994 21.1523 51.6668 24.6373 50.8331 27.8668C50.3275 29.6743 49.501 31.375 48.2471 32.7816C48.1884 32.8487 48.1296 32.9159 48.0692 32.9851C47.8966 33.1801 47.721 33.3719 47.5439 33.5628C47.4989 33.613 47.4539 33.6631 47.4075 33.7148C46.5425 34.6357 45.4587 35.3348 44.3408 35.9066C44.2499 35.9545 44.1589 36.0024 44.0652 36.0518C43.2057 36.4811 42.2992 36.7552 41.3721 37.0003C41.3151 37.0156 41.2581 37.031 41.1994 37.0468C39.4193 37.5007 37.1973 37.3886 35.4346 36.9222C35.3784 36.9076 35.3222 36.8929 35.2642 36.8779C34.4333 36.6546 33.6466 36.3209 32.8564 35.9847C32.7275 35.9331 32.5986 35.8816 32.4658 35.8284C29.8877 38.4066 27.3096 40.9847 24.6533 43.6409C25.0126 44.0654 25.0126 44.0654 25.3926 44.4623C25.4401 44.5087 25.4875 44.5551 25.5364 44.603C25.586 44.6512 25.6356 44.6994 25.6866 44.749C25.7941 44.8547 25.9015 44.9605 26.0089 45.0663C26.176 45.2305 26.3434 45.3945 26.5114 45.5578C26.675 45.7172 26.8376 45.8775 27.0001 46.0381C27.05 46.0861 27.0999 46.1342 27.1513 46.1836C27.5121 46.5423 27.8129 46.9287 27.8864 47.4446C27.8797 47.5043 27.8731 47.5639 27.8662 47.6253C27.8593 47.7147 27.8593 47.7147 27.8522 47.806C27.6348 48.4241 27.0693 48.9053 26.6165 49.3575C26.5508 49.4235 26.4852 49.4895 26.4175 49.5575C26.2794 49.6961 26.141 49.8345 26.0025 49.9727C25.7912 50.1837 25.5811 50.3957 25.3709 50.6078C25.2361 50.7428 25.1011 50.8778 24.9661 51.0128C24.9038 51.0758 24.8414 51.1389 24.7772 51.2039C24.0332 51.9417 24.0332 51.9417 23.4909 52.0418C23.4217 52.041 23.3525 52.0402 23.2812 52.0394C23.2119 52.0402 23.1425 52.041 23.071 52.0418C22.5086 51.933 22.112 51.4326 21.7267 51.0421C21.6649 50.9801 21.6032 50.9181 21.5395 50.8542C21.3434 50.6572 21.1477 50.4596 20.9521 50.262C20.8188 50.1279 20.6855 49.9938 20.5521 49.8598C20.226 49.532 19.9004 49.2038 19.5752 48.8753C19.2718 49.0157 19.0679 49.2101 18.8385 49.4487C18.7562 49.5326 18.6739 49.6165 18.5916 49.7003C18.4632 49.8322 18.335 49.9642 18.207 50.0964C18.0827 50.2244 17.9577 50.3517 17.8326 50.479C17.795 50.5183 17.7574 50.5576 17.7187 50.5981C17.428 50.8929 17.1348 51.1039 16.7215 51.1748C16.6283 51.175 16.6283 51.175 16.5332 51.1751C16.4403 51.1774 16.4403 51.1774 16.3455 51.1797C15.7043 51.0601 15.271 50.544 14.8306 50.1021C14.7237 49.9958 14.7237 49.9958 14.6145 49.8872C14.4642 49.7376 14.3144 49.5876 14.1648 49.4373C13.9743 49.2458 13.7825 49.0556 13.5904 48.8658C13.4057 48.6829 13.2222 48.4989 13.0386 48.315C12.9702 48.2474 12.9017 48.1799 12.8312 48.1103C12.397 47.671 12.0482 47.2802 11.958 46.6487C12.053 45.984 12.4519 45.5636 12.9171 45.1083C12.9787 45.0468 13.0403 44.9853 13.1037 44.9219C13.3095 44.7167 13.5164 44.5127 13.7232 44.3086C13.8713 44.1614 14.0192 44.0142 14.1671 43.8669C14.4852 43.5502 14.8039 43.234 15.1229 42.9182C15.5843 42.4614 16.0446 42.0036 16.5047 41.5454C17.2513 40.8017 17.9985 40.0586 18.7461 39.3159C18.7908 39.2715 18.8355 39.2271 18.8816 39.1814C19.3808 38.6855 19.8802 38.1897 20.3797 37.6941C20.5611 37.5141 20.7425 37.3341 20.9239 37.1541C20.9687 37.1097 21.0135 37.0653 21.0596 37.0195C21.8053 36.2796 22.5501 35.5387 23.2941 34.7971C23.7531 34.3398 24.2128 33.8832 24.6736 33.4277C24.9889 33.1159 25.3033 32.8032 25.6171 32.4899C25.7983 32.309 25.98 32.1287 26.1625 31.9491C26.3599 31.7546 26.5559 31.5588 26.7516 31.3625C26.81 31.3057 26.8684 31.2489 26.9285 31.1904C26.9804 31.1378 27.0323 31.0851 27.0858 31.0309C27.1312 30.9858 27.1766 30.9407 27.2235 30.8943C27.329 30.7499 27.329 30.7499 27.2914 30.5535C27.2111 30.294 27.0975 30.0532 26.9824 29.8079C25.6568 26.871 25.5004 23.377 26.5927 20.3401C27.268 18.5573 28.2422 17.0351 29.5752 15.6722C29.6317 15.6108 29.6882 15.5495 29.7464 15.4863C30.6057 14.5749 31.6706 13.8968 32.7783 13.3284C32.8261 13.3036 32.8739 13.2787 32.9231 13.2531C33.7274 12.8397 34.5612 12.5447 35.4346 12.3128C35.4968 12.2961 35.559 12.2795 35.6231 12.2623C37.5359 11.7762 39.7804 11.8099 41.6846 12.3128ZM34.4971 19.8909C34.4327 19.9392 34.3684 19.9874 34.3021 20.0371C33.164 21.0047 32.5167 22.4861 32.3291 23.9437C32.3209 24.051 32.3144 24.1584 32.3096 24.2659C32.3064 24.3188 32.3033 24.3717 32.3001 24.4261C32.2522 25.9663 32.8097 27.5068 33.8232 28.6653C33.9419 28.7891 34.0624 28.9112 34.1846 29.0316C34.2457 29.0926 34.3068 29.1536 34.3698 29.2165C35.6142 30.3992 37.1959 30.8768 38.8843 30.8504C40.5557 30.7834 42.0588 29.9922 43.2025 28.7984C43.7757 28.1259 44.2141 27.3704 44.4971 26.5316C44.5219 26.4586 44.5468 26.3857 44.5724 26.3106C45.0335 24.6872 44.7543 22.9633 43.9609 21.5026C43.7372 21.1114 43.4733 20.7695 43.1689 20.4378C43.1171 20.3788 43.0652 20.3198 43.0118 20.259C41.9691 19.1372 40.4643 18.4587 38.9386 18.3898C37.2321 18.3396 35.8068 18.8059 34.4971 19.8909Z" fill="#1447E6" fill-opacity="0.2"/>
</g>
<defs>
<clipPath id="clip0_1800_6961">
<rect width="40" height="40" fill="white" transform="translate(11.6064 12)"/>
</clipPath>
</defs>
</svg>
